<mxfile host="app.diagrams.net" agent="Mozilla/5.0 (Windows NT 10.0; Win64; x64) AppleWebKit/537.36 (KHTML, like Gecko) Chrome/130.0.0.0 Safari/537.36 QuarkPC/2.7.0.331" version="27.0.5">
  <diagram name="第 1 页" id="JxqPFF18RhWGIjWEIc3t">
    <mxGraphModel dx="1746" dy="653" grid="1" gridSize="10" guides="1" tooltips="1" connect="1" arrows="1" fold="1" page="1" pageScale="1" pageWidth="827" pageHeight="1169" math="0" shadow="0">
      <root>
        <mxCell id="0" />
        <mxCell id="1" parent="0" />
        <mxCell id="OGXLcFdzuTNNJpqdDNey-7" value="" style="group" vertex="1" connectable="0" parent="1">
          <mxGeometry x="-90" y="215.95000000000002" width="130" height="89.08999999999997" as="geometry" />
        </mxCell>
        <mxCell id="OGXLcFdzuTNNJpqdDNey-5" value="" style="shape=image;verticalLabelPosition=bottom;labelBackgroundColor=default;verticalAlign=top;aspect=fixed;imageAspect=0;image=data:image/png,iVBORw0KGgoAAAANSUhEUgAAAbgAAADICAYAAACan/TGAAAAAXNSR0IArs4c6QAAIABJREFUeF7tnQl4E9Xax//vpAu7gICI0Bak7E3SpCDK1oJiwV0vuFwXUAEVr4LrvepV/NxFAeUqCCqi97qAu6wqtCyKaNMmKeDC1hZFRPad0sz7OYFiwbbJJJPJTHLmeXxA8q6/M+0/Z5ZzCOIQBAQBQUAQiBiBbt0GWC0SXw9mJxGaMnAqgKYAtoN4BTPWWCyWWUVFi9ZErIg4DUxx2rdoWxAQBAQB3QjYu2Vns0T/A9CqxqTEs5mlqV7v4sW6FRbjiYTAxfgAi/YEAUHAGASOidznABJrrYjomUOHDj/x449f7TVG5eatQgicecdOVC4ICAImI3BM5PKCKNstM91ZXLx4aRC2wqQGAkLgxKkhCAgCgoDGBLKzsxN27pQzmC0ZRJzOjAYS0IAhNQC4MYDcIFLuI5kvcq/Kzw/CVphUQ0AInDgtBAFBQBDQgICj2wCrj/hiSDwIDCuABhqEBcmcI0QuNJJC4ELjJrwEAUFAEPATsFqzbyKmoSAMjBSShERLY5fry92Rih+rcYXAxerIir4EAUEgogSs1v79Ab6bgMERTXQ0+CaPNy9FhzwxlUIIXEwNp2hGEBAE9CBgt2aPZ9A9euQ6noP4DY8nf7iuOU2eTAicyQdQlC8ICAL6ETh6n00eH8nLkbV1w6DbvN7FU/Tr2NyZhMCZe/xE9YKAIKATAZut/3VgHg/gNJ1SVpuGJFzodufNjWYNZsktBM4sIyXqFAQEgagRsFqzxxHokagVcEJiOiBzRc/i4qXFxqjHuFUIgTPu2IjKBAFBwAAEjCVux4EsT0i0XCierKz9BBECZ4AfoMoSHN36dvZZLJ0BzgRTDoD2OLowqwRAPman/F0ZtyNE2MOMLcxYTxJ+ZuZtCbLlw8JVi7wGakuUIgiYnoDN1n8gZPkiEF0IIM0IDREw0+3NG2aEWoxagxC4KI+MPaP/EJbkIWAaomEpGwj8IZjy6jY4lLdixYqDGsYWoQSBuCWQmTmgi+yTFwJobQQIxDTSXbx4uhFqMWINQuCiMCpWa87FxLgEhIsBNItwCb8R8KEk+yYXrlr6fYRzifCCQMwSyMjod7ZE0tcGa3CL5JMGFK0WW+1UNy5C4HQ8W+0ZOYOZ8C8AvY+mpXKAk3QpgUi5nDlZlmnyqlWLftMlp0giCMQIAZst50YwXjNoOx94vHl/M2htUS1LCJwO+K3W7NZE9E8wRh9LtxVACx1SV5eiBITJCQl7JrtcriNRqkGkFQRMQ8CgM7cT+RHd4fEsnmwaqDoVKgQuwqBtGTkjcXTWptyY9gGwRDhlsOELQdI9Hs+iYLbuCDamsBMEYo6AzZY9S+N75JFg9Asj0eH1fq58eRbHMQJC4CJ4KlT9wWBGGRGMtpbcYRDf6fHkvxJBDCK0IGBaAlZrfweBXaZogPGKpzjvFlPUqlORQuAiBLqKuMlgbAD5H/k35MHAeK837z5DFieKEgSiSMBmy/4nmJ6KYgmqUksydy9alV+gyimGjYXARWBw7dacLxg4F8ABAMkGuixZY7cEvOP25l0TARwipCBgWgI2W/9vwdw91AaaNqiPHfv2h+qu2o+AL2XwV1UdExMbPutyfab8Loq7QwicxkNus+b8CKADgF0AlJ17zXQs9Hjzgtlp2Ew9iVoFgZAJ2Kw5yjukdUIJMPTsTMxaURSKq3Y+hJc8nrzbtQtorkhC4DQcryo/DL8AOEPD0PqFYvq3p3jx4/olFJkEAWMSsNvPS2e54ie11bU7rRlu6NcDj8yap9ZVc/t4v2QpBE6jU8pmzVkFoCuAH8FoBMLpGoXWP4yMKz2r8mbpn1hkFASMQ8Bmy7kcjA/UVHRtn+4439YJo6a/hwOHy9W4am5LoPfd3sVarpCkeY2RDigETgPCNmvOq3/suHvTsXtuitD10CBsVEMo9xC93rxFUS1CJBcEokhAzSLLjrZtcPOAs2FLPQOjpr2LVZt+rbbylo0bYcuuPbV21frUxnC2awNn2zZ4OIxZIINGeL2Lld9NcXsIgQtz6K3W7JsI5D+JmLGUCH3DDGkU980g34Uez9Io30QwCg5RR7wRsGXkjAVhQqC+z7N2wvhrL/GbKYKUv3otFJHy/9e0MRRRO71xI7Rs0ghDJrxebbjU5k39guYXtnZt/D7KYb/vmUDpA33+IQPPer15KwMZxuLnQuDCGNVjC68qs5yWytNLx56cDCOiwVwJcz2ePGX1dHEIAnFHoOqX15qarypueceETRGzBnWUh6dPPJ76+Au893Xh8X9U7tU527aGs12KX9SaN2rwF58bp7yNwo2bcOU5DqxcW4KS33eEMg4HGfyM15v/aCjOZvYRAhfG6Nls/T8C86UAK7OcXYB/i5uYOiTwkCJv/vsx1ZRoRhAIgoB/pw/iGu9FVxW3QOHW/LwF17w4E+mnN/fP1BzHZmqnNqhfq+tLC5fBU/oLpo28Ck98+Dlmf6PqgsrqP9bPbPPHLPTodBBYycCd8TSbEwIX6Mys4XOrtX9/AvvvUTHwFMG/HFcMHpzn8eb3j8HGREuCQK0EbLac88FYUJ3RWe1T8crIq4ImOP7TRUdFrW0bNK5fN2i/r37cgLPapyHBIkERyTvf+AC/79nn9+/YqgV+3Fzzylweb7MEYLayPCDs9uw0VCANhDSZkBovszkhcEGfaica2q05Mxm4noA3GWj35w4BIQY0sBsDN3i9eW8auERRmiCgOQGbrW8m2PLnNcVjGeonJ/nFrVub4B6U3nvwEBrWDelVOuw7dPiEy51Lv1+HO2YcfbDz+r498ObSb2vs+9Dh8kY//vjVXs3BmCigELgQBiszM8cm++BWXAn8HIPuCSGMmVxWerx5Pc1UsKhVEAiXQKdOA05NTpK3nRzn6l5O3H+JslBRdA7l5fEnP/ocL900BKNfm11jEUcq+PQ1a/K3RKdKY2QVAhfCONhsORPAGAvQHICVDUtj/pc/g67xehe/EwIu4SIImJaAzZqjXA884UaZIiy9OioXbaJ3vJ73DW7M6Ymbpr4N14ZN1Rbik6n9qlWL10evyuhnFgKncgyUvd0kkJuBU5UbtgS8oDKEWc1f83jzbjZr8aJuQSAUAlZr9hoCda70TU5MwBcPjkajeqFdcgylhtp8PljpwWMfVHubEDJbrMXFXxZrndNM8YTAqRytyp19CbQCjBlMPE1lCLOal3q8ecqeduIQBOKGgM2a/SlAF1U2rLzQ/fqtxlmT/NCRIxgyYQY2bd/5lzFh8Nleb/43cTNY1TQqBE7l6NtsOa+AMRKMu/yXJglDVYYwrTlJ6O12552wUrlpmxGFCwJBEDh5NZPr+nbH3Rca66HiqV98halfLP9LNz5Zsq1atcgbRJsxayIETuXQ2jJyVoPQxSdTL4l4EVFoK42rTGsMc8ZjnuK8h41RjKhCEIg8AZst+0IwfVaZaeqIK9Ez3VgXMjbv3I2rX5iJ3QeUjQ+OHYx1nuK89MgTMnYGIXAqxicjY0A7iWTlpu3PJEs3siR/rsI9Fky/9XjzzoqFRkQPgkAwBJzOPqdXHEnYrNh2OuM0vHvnsGDcdLeZODcPM5dUeWWAMdlTnHeH7oUYLKEQOBUDYs/I/jsT/RfEsyFjPYj+qcI9Jkx37+G6JSX5h2KiGdGEIBAEAYdtgNfHcsYt5/XGLef1CsJDfxNlceebpryNwxUV/uQy0+Di4sXz9a/EWBmFwKkYD1tGzusgDAfRrcTcl4GrVbjHhilJHT2eRar3yIqN5kUX8UjAlpHz7/p1kx9Z9O/RljqJiYZFMG72fHz8nRcgutHjWTzDsIXqWJgQOBWwbdYc5U5uL+X9EovEM5W/q3CPCVOSpYHuVYu+iIlmRBOCQBAEbLYBOSP69xw9+vw+VwRhHjWTpd+vx0Pvzn1g2cp5T0WtCIMlFgKnYkBs1hxlpdOuHm9eks2ao7xd2VqFe0yYMvhmrzf/tZhoRjQhCARBoEuXIUmrnxveHZL010cVg/DX0WQ+5eYO1jGf4VMJgVMxRDZrzo8AWni8zZrZrNuOXuyOt0M8SRlvIy76PUaAFyz4QVnj2LBAiO6g88+fbNj6olCYEDgV0I/N2ojh60OwbFDhqtq03SkNsGH30VXDjXQoi0u7vXk3GKkmUYsgoAcBXrjwITA/pkeuEHKUISGhB5177m8h+MasixA4FUNrs+ZsB2g7yfJIlihPhavftEFiAvYdCTzxc5zWFJv27MfvBw+rTVGtfWaLpijaeuJGiQkSoUJm9fEZ+Z7ivJjb9049COERbwR4zpwmSEhQdsY23vtlRPfR+eePj7cxCdSvELhAhKp8brPmKG9S/kASX8YybVTh6jdVhKvwt9p35O1y6ik4N/V0vOL5CYd9stoU1dqPtnfES27l6uqfR+M6Sdh1qFx9fKI3PJ7Fw9U7Cg9BwPwEeMGCOwFMMlQnRKtQXn4WXXTRAUPVZYBihMCpGAT/yuIMj6c4r5fNmqNq+tO6YT2cfXpzzP6ptMaM6U0a4sJ2rbGn/AheK16norLaTQe1PQPzN/5ygpFSj3L8vFfdzwSDH/V688dpVpwIJAiYiADPmmVBo0bKG9UOA5V9K+XmTjVQPYYpRQiciqGwWXOUhUuTPd68TJs1R5nBBb1mz8VntkayxVKjwKU1qo/L0lP81fy6/yDe/aFERWW1m3Zo0gj1ExNOuEypCJyjRVN8uv5nVXmIebi7OP8NVU7CWBCIIQI8f/5gEM01SEv/odzcfxikFsOVIQROxZDYrf2nM/hvHm9eE1tGTh4I2bW592jZDN2aNcaa7btwdqvm/tlSdTO4Vg3q4Yr0NkiQJH+4tTv3Ys4GdcITqI2xzs6Y6Pr+uJkicJe2b4OVv25DRrMm8G7biYIt2wOFAcmc416Vnx/QUBgIAjFMgBcufATM0b6S8R3l5vaIYcxhtyYETgVCW0bOWBAmkMRNmKWJYK5xYToLEW7P7AiJCOU+GUkWqVqBa163Di5p3xoNk/5cIcG9dSfyNmm7Ea8icG+t2YBtxx5cUQRuSIdUHJFlJEqS/4GT/xT9gEDXXUnitm53vnbTSxX8hakgYCQCvGDBWgDto1ZTQkIzOvfcwN9Ko1Zg9BMLgVMxBpUri5PEmbKMSwn0SE3ujZOTMLzbmSd8XN39rnqJFjStkxzQTkWZQZtW3oerdFDu+yn3/2o7PN48cc4ETVgYxjIBnj9/HKjm3wER7Z2oF51//tcRzREDwcUvKxWDaLMN6ACWfyTmy2SSygjsUiNwKlJFxTQIgVvo8eblRqU4kVQQMBgBnj//DhC9oHNZ3+HgwYF02WW7dM5rynRC4FQOm7IfHBFPd3vzJ9W2XJdy2U+5RGmm48WiH+Cr5d04Ao11excb6xFpMwEWtcYUAV6w4DoAb+rY1M+Um9tGx3ymTyUETuUQ2jJy/g8Sd/J48ofarTkvM3BrTSH6tTnN/6SiGQ7Xb9ux9OettZZqkX1dClct/fNJFTM0JmoUBCJEgBcsuADAnAiFry5sPuXmikUWVAAXAqcClmLq6DbA6pNkDyOxgcQVg5l4Vm0hTq9fF1d1CvptApXVaGP+5poN2B541RS38nqENhlFFEHA/AR44cJzwPyVjp0IgVMJWwicSmCKudWa8zHAnwFJnxEqNgGcVFMY5RWAKzumhpBFPxflnTvl3bvaD3re4118j35ViUyCgLEJ8Jw5nZGQsEbHKoXAqYQtBE4lMMXcZhtwLVj+u8ebN8hmzf4UoItqCnNq3WRc36VdCFn0c5nmXYv9AdbIZPAgrzd/gX5ViUyCgLEJ8JdfnoaKCm3f56m9ZSFwKk8JIXAqgSnmZ599dt0D+5NXM+QBRFJXMH1WU5gGSQkYkWG8tVkr61Xef5tcpOwCUtvBn3m8+ReHgEq4CAIxS4BnzUpCo0barIgeHCUhcMFxOm4lBE4lsEpzq7X/PQCXe715L9Y2izP605Q7DpVj5ur1tVMgvsjjydfzZnqIoyLcBAF9CfDChXvB3ECnrD9Rbq65Hs3WCUxNaYTAhTEANmv2UpkrLpGkhF61zeJGWdNRLzEhjEyRc123ay8+q3U9SjF7ixx9EdnsBHjBgjIAej2676PcXGP+IjHoQAqBC2Ng7PbsS2WZunu9eQ/WNovr1/o0/1Y5Rjy+KP0Vq7bV8s6omL0ZcdhETQYhwAsWeJTnznQrh7ktDRoklsoLErgQuCBB1WRmt+a84WNMliQ+vaZZXJuG9fG3Dkd3CjDa8ebqDdh+qKbbCGL2ZrTxEvUYiwAvWKBsfFzrouuaVsx8Lg0atEjTmDEcTAhcmINrs/U/g1ge5/bmj7BlZE8G0e3VhRzW9Uw0qVPj2wRhVhGau/Lum/IOXA3HZpDvQo9naVFo0YWXIBD7BHQXOGAk5eZOj32y2nQoBE4DjjZbzuVKGI8n70NbRs5CEAaeHLZ7y1PR+4wWGmTTLsTyX7biuxq2yGHgXK83T3xT1A63iBSDBKIgcBMoN/fuGEQZkZaEwGmEVXl1oHXr1uWzZ8/22aw5yjXyE97uVrbPUVY0aVGvjkYZwwuz9cAh/6aqPq52g5zdysauANwMerGi4tQP1qyZXR5eRuEtCMQegSgI3DLKze0beyQj05EQuAhwdXbuc3pFYsLmk0N3bnoKctu2ikBG9SEXbNyM73coOnbiwYwCInjAaAlCbwCnANgCopmSRG8WFS3Sc+UG9Y0JD0FARwJRELhDlJtbV8cWTZ1KCFyEhs9uH9CdZfnbk8NfdGZrtG/cMEJZgwsb6NUAAq0AY6K7ePFsmy17FDNdTMBgAKslizRUiFxwnIVV7BOIgsABFouVzjuvOPbpht+hELjwGdYYoUuX7JaJCeQGcFqlUaOkRFzdOQ31EqLzOsuBigq8831JwI1N/fUSz1Z2TVD+ardmj2HQRCFyETxhRGhTEfC4yvq02vfrK80O7uysa+FEN9H557+ua06TJhMCp8PAWa3Z0wl0c2Wqtqc0wKXt9Xo39MQGP163CRt371PVdeUu3lZrzgACvhQipwqfMI4xAkUFpUOI+CqALk+Wyw932r5euV+t5zGVcnNr3KZLz0KMnksInE4jZM/IuY8Jz1SmyzrtVPRpre9Tlct+3oqC37ar7phAL7i9i8cojjZb9mQw3V7131QHFA6CgMkIFBRsrpdA5TeC6SoQelUt/7QDv6Pl/m26dOSTLPilQcsdO5MaPlmnQf1pnTo136tLYpMmEQKn48DZM3KuAeF+PrbywTWd2+I0nZ6q/GjdJpSonLlVRUNMQ5V7cn6Rs2a/A9C5+w/Uab1u3Xw9F5vVcbREKkEAWO3a1P4I8w3wz9jQviYmTQ7tRssDvyPJdyQi2JgI2+o0weYGx+92HMvD74IxzZ6VprxwLo6TCAiB0/mUUF4nOLivzj+YcMfgdmec0bFJo4hWsOtwORaWbMbmfYH2ewtYxlafLJ23atUir71bdjZLlEfAaLc37+WAnsJAEDAZAW9hWV9mvhbAVQwE9VRYolyBZgd34tSDO2BhWZOOfWTBrjqNsK1uExyy1HIllGgtszx91579U3Jyuqq7B6FJpcYMIgQuSuOirIByRfuUuSmN6tkiVULxtl0o2rojmN26gyuB6FaPZ/FU/ywuIycPhEYeb54zOGdhJQgYn4CncONVgHQ1M0LeHirZV35c6EL5BauI2p6kBtibVN//p3JZUs3BjFmShGk2R2rcL9QQCn81rIVtLQRm3jj6WWa+V2tIe8qPYM76n/HbgUMah+apHm++/+a2sl0QgZ/wePP0vsGucU8inCAAeFylY5hxNQg9tOJRt+IQ6h85gHpHDqFexUEowlfdoVx+PJBQF4cSkrE/oW5IolZdXALWM2N6BX6fnJWVdUCrvswURwhcFEfrjeG3PgbQQ1qX4P1913dflm2ZS+BxmsYmfO3x5PlvsNts/Qcy89teb14zTXOIYIKATgRWr97U9MhB+T4mvopAJ6w8FIkS6lQc9gtdw/L9/lnZgYQ6OJhQx3/pURG5SB5EmM2SZYrd3jqu7tVFlmokRywGYr8x/LYXANyhdSvMcs6koh+cYHpO49j7PN48//2Ibt0GnGaR5G883ry2GucQ4QSBiBLwfFfWjSW+GwzliUhjrJ0X0Y6rBGdshIRpO3fLk3Jy2mp9iUevLoLOIwQuaFTaG84YdtsMIgzTOvKRCnT5j3eNInBvaRx7o8eb106J2aVLdoPEBOlrj3exfnthadyMCBdfBNwFZQOZMIbAg+Kr8xq7/YBl+T+Z3dvmxyoPIXA6juzqwtIuR0AvEXg3ZPmpopefuxfMV2hdQmIdbvrs16vTwJZCbWP/uT+c3d43HbJlrNubd5u2OUQ0QUBbAkWujcMI0j8AOLSNHCvRuBREUxKT903s2rVrTC2qLgROx3PUXVByN+j4ZcPy7cWFm7YUrDjzyH4tn+ql8mEzXkp2Op31Ko40UlZT1m5NMOanPcX5/1KQZWT07+vzyYVr1uRrWbyOoyFSxTqBIlfJA0R0GxhnxHqv2vXHH8kkT3I42i3VLmb0IgmB05G921UyAaCxVVMq4rZr7ffYvWEt9m3epEU1m4bNeNm/fbjNml0IUKYWQZUYxHytuzj/f8cEblBx8eL5WsUWcQQBLQgUFpa1khj/YuZbiaDu+XotCoiVGIxNRNLkHXvWTczJyakwa1tC4HQcOber9E0A19WUcv+WzX6h271xLQ7vVL+k1rG4BcNmvNzdL3C2nLvAeF6LFglYakncM8jlcsXl48ZaMBQxIkegsLAsSxE2gP2bD4tDSwL0IZgn2rNSl2sZVY9YQuD0oHwsh6ewdC6zf9uZgMehHdtwaOd2+P/c9jsObPsN5bt3BfQDsGzYjJePb4hos+Yos6zcYBxrtSGfw+NZWhR2HBFAENCQgKew7GI+Kmw9NQwrQlVHgOhnAJNsmW0mEpE2S7VEmLQQuAgDrhre4yrzMDjkpw59hw/h4Lat8B0+DOXvvvKjf1qSkmFJToaUlIzE+g321G/Z6vs/7vU1gIxGIDSUZbnxt99+iymv+BchUX0wcIPXm6fMPsUhCBiGgNtVuhFAmmEKiqNCiPC+XMETM3ukfW3ktoXA6Tg6blepcnlP99149+3bW/D8hIlZGzZuUN0tA/O83rwLVDsKB0EgggQ8haWzmDEkgilE6KAI8O/EmG3LShsdlLnORkLgdAJe9O1GO1kk/S/xMSbbs1L9L5NbrdnjCPRIkC3/Tsz3uYvz3wjSXpgJAroQKHKV3EugZ3VJJpIERYCAi23O1M+CMtbRSAicTrCLXBvHECRlR2xdDwu4S4Yz7fvKpPaMnMEs4UEwlEulDaop5if2b2qaeJ/X+/l+XYsVyQSBAASKi0rO8cm0GIBYA9VAZwuBltmcKcfv/RulNCFwOoxEUdHGNJIlZQ04Xe8XELDX6khpXN0N4ezs7ISdO+UMZksGETcHLIVHjvi+X7Mmf4sOSEQKQSAkAh5X6SIG+ofkLJwiS8Bi6Wi3t/4psknURRcCp46XauuCgvWnJJBlBkCXqXYO04GZ3ZlZaZq9BxdmOcJdEAiLgKew9HpmzAwriHCOGAEGpmU6U0dFLEEIgYXAnQRN2czz+D8lWPbLsqXU6/18awhs4f5uUw9IsnJZ8pxQ/MP1Ycb7mVmp4kZ8uCCFvyEIuF2lyv5mYvZmiNGovohDR8pP6dkzfY9RShQCB0DZZXv//uT7CXRD9ZcR+TMQpnk8+XMCDdyqwp9tFSz3B+FiMP8ploEcI/A5M57KzEp9IAKhRUhBQFcCblfphQAM9xCDrhBMkIwZYzKzUpVdUgxxxL3ArXZtav/jhnWdnnrm6enl5eUtaxuV1NS0+f83btzbRFKyzL46yp/MqEOMU5k4ixjdQGhqiJEFIMu43tE9VesdBYzSnqgjjgiI1wJMM9i/2J2prY1SbdwJXGFhySCScR2IuhPQvnIgFi9ejJlvBX6XefRto9Gju38lLMMfEpBldaa6DF+oKFAQqIVAYWHJ2RKToV8oFgNYlYB0ud3Z5iMjMIkbgStyld4HYERVUas6APv378d999+HfftrfzK+RYsWGP+MOV7BqeDE+llZrcTakUb4SRM1hEzAXVD6IgjKdjfiMAMBwhd2R+pAI5Qa8wLnX6sOfB8YvQIBf2XaK/h6xYpAZhg7ZizsNltAu2gbVDC1z8pKWR/tOkR+QSAcAkWu0rU1fTENJ67wjRwBmfgchyMt8C/TyJXgjxzTAud2/5IJX8UyAPWD4bhixQpMnfZKQNN+ffvhxuHDA9pF24Ahj810tp0U7TpEfkEgVALKLQWJaV6o/sIvOgQI/LLNGf3lu2JW4IqKdjYm3+4FIDor2CEO9jJlwwYN8Z/Jk4MNG027XeyTczJ7tHVHswiRWxAIlYC4PBkquej7sSS3zcxsWxLNSmJW4NwFpS+A4F+DUc0R7GXKic9PQNOmhnlgsrYWf5GJRzgcaWJzUjUngrA1BAF3YekqMLoaohhRhDoCRP+2O1IeV+ekrXVMCpzHtbGnDGkBAaeoxbU4Lw8z3wy8WML9996HLl26qA0fRXueSAkJE2y21sqeTuIQBAxPoLig7Ewf8TrDFyoKrIEArdu5x5eRk9P2ULQQxZzAFbnKhkngFxloGArUDRs24NHH/i+g6w3XXY/+/c22qAL9DvCHYPrQnpXyeWWTNlv23WAaC+CM6hon8HNub/69AaEIA0FAQwJuV+m1AMR7nBoy1TsUM4/IzEp7Ve+8lfliSuDcBaVPg3B/uDBH3jIKhw8frjXMwIED8ferrwk3VdT8GfhOInz/8LhxZ5WUlHSsrZAGDRv+On78S93OOafNjqgVLBLHHYEiV8lLBLot7hqPoYYJvMTmTIvaik4xIXCelSVtkUgTmXGJFufGU888jR9++KHWUFarFXePvUuLdFGLsXfvXtx+R+DXixITEzF92vTNxPwuJUozbLaUVVErWiRXnFNNAAAgAElEQVSOGwJuV9kKgHvGTcMx2ihLfGFmZtrcaLRneoHzFpYMkpmUBY1rnYWogTv9tVexfPnyWl1OO+00PPv0M2rCGs527dq1ePzJJ4Kq67XpryIhIQFgbKxARXZW1pllQTkKI0EgRAJuV+mvAGpdPi/E0MJNXwLv2Z2pV+mb8mg2Uwuc21U2FuAJWoP7+JOP8dHHHwcMO3OGuTe7Li0txcPjgtvge8pLL6NevXqVTPbbnanVbZYakJkwEASCIeAuKBsI4oXB2Aob4xOwEHXPcKQU6F2pKQWuoKCgXgI1V2ZtIyMBTJm9KbO4QIcyg1NmcmY9fv31V/zzgX8FVf6Lk17AKadUeSiVsNruSO0WlLMwEgRUEnC7SpWHS5SHTMQRCwQYL9qzUu/UuxXTCVzRtxvtUoJlEjP3ixQs5f6bch8u0HH3XXfBmmENZGbYz7fv2I677r47qPqee3Y8mjdvfoItEWbbHKlDgwogjASBIAkUFf1sJ9lXFKS5MDMHgZ0WX4Ito8cZm/Qs11QC53aVKr9MlaWnTo8kpGAv3V3797/jvHPPi2QpEY29b98+jP7H7UHleOqJJ9GqVavqbK+zO1P/G1QQYSQIBEHA7SqZAPhfWxFHDBEgpnttWSnP6dmSaQTOXVDyEIge0wPO1q1bce/9yuYDtR+XXHwxLr/s8kBmhv28vLwcI0YFd5X30UfGIS0trZpeaKXdmSKedDPsKJurMPfXP56B5DrK0nLNzFW5qDYwAf1/Vxhe4Lze0ibyESg7xF4XGKA2FsE+Pn/B4AswdMgQbZJGKcoNw4cFlfmhBx5Eenp6tbZGWHMuqCaEkeEJuAtK/wnCU4YvVBQYIgHKtTtTdHt4yNAC5ynYdBaT7wUg+AWTQ6R+gltFRQVuGnFzwFDnDzwf11x9dUA7IxsoMzhlJhfo+PdDD6H9mcf3hz3JnGfYnWk3BoohPhcEaiNQUFCQmEDNldmbmdbAE4OqggATXs10pI5Q4RKWqWEFzl1Yeh3YP3NrElaHITgfOnQIo269JaDnuQMG4LprdZtYBqwnFAPlHpxyLy7Q8eQTT+CMVtWu5FXpOs3mSLmViORAscTngkB1BNyFZTeC+TVBJ6YJ7JKJujocKZv16NKQAucuLHsMzA/pAaC6HFu2bMH9//pnwPTZ/bIxfFhwl/gCBouSwdi778KOHYFX4Jo4YQKaNql99wQGz2eSb3U42pVGqR2R1sQEilwl+QSK2NPRJkYTU6UT405bVuqLejRlKIErKCg5PYFIeUoyqo+eB/uaQO/evTHipsCXMvUYyFBzKEKuCHqgY+qUKahbp24gM+XzYjBus2el1r4UTDCRhE3cEHC7Si8E8JlZGj5IR7DF8ueVDwsTGnIyGsnJsEAySxvRqnOZ3ZnaV4/khhG4wm839pMSpElg2PVovLYc33zzDaa8MjVgGWf37IlbRgW+lBkwUBQNHn7kYZSWBV51S+WqLbuZ+bbMrLS3o9iaSG0iAp7C0lnMMPQTW79L+1GUuBk/JP6O36SaL+s3luugudwALeT6aK785zv6Z31OMtGIRLhU5v72rLS8CGcxxlJdRa7SEQRl5sbH14KKdOO1xV+wYAHeee/dgCV0z+qO20ePDmhnZIPHn3gCa9etrbXEunXrYurLU9S3wfiXPSs18Bvz6iMLjxgi4CnYeBaT9I1RW9om7cfXSWUoSPoFPoR+i7kOJ6CxXBeNuQ4UEaz8e0M5GUmwIJEtf/7JFiTE9EyQXrI7U4J7CTeMEyPqM7giV9l4At8TRg+au77/wQf4bE7gqyWZmZkYc4fuq89o2u+z48dj9ZrVtcY8tWlTTHg+tCU/mXhKpiNNbHmi6ajFVjC3q+w/ABvym+Li5PV+cVMuSep9EAhJbEEiLEhi6bj4KZdAFaFV/qsgPvqn8v907N/A/r+fKtdDlyMt0LmiBdr4VO/9HNF2ifBbUl1L186dW2+PZKKoCVxR0a9pkMtfIODiSDYYSuz/vf02Pv/i+H6gNYawZmTg7ruCW+oqlDr08Jn04gsoKqp9VaTWZ5yBJx4PbteBGmqea3emKvdYxCEInEDA4ylpyxWkvBrQyGhoFHFblLzeaGXVWk8jTkbnY6KWXnGq0Wu/xe5MfSWSRUZF4NzusoHwsfIKQKdINhdq7NdnzMCSpUsCunfp0gX33xt4xZOAgaJo8PLUKVi5cmWtFaS3b4+HHgz7odZiuzPVvAt3RnGMYjm1u3DTw2D5UaP1+Ho9F9YnRHRyoVnLyqXPjhXN0bmiuX/GZpaHXIjwpc2RGtG1DnUXOLdr0+2ArIibYR81mjJ1Kr5ZGfiWQCzM4F59/TUsW7as1h82DfvcTQnJHWy2lls1++kWgUxLwOPZUl+uOOwh4EwjNfF58losSd5opJL+UosE8otapyNHhc2sD7CwxL0yM9O+jhRsXQXOXVj2PJgNvw32pBdeQJE78GLmPXv2xK01PEV555h7IzJm/7j9FrRvr93vg7f++xa+XLSo1lrP6tEDt92q3W20aO0NFZEBEUFDJlBYsPFWiaSXQw4QAcdNlt2YWr/2KxpV05Z/sh7ln2zQvBJLxyaoe3/WCXEVUUuvaAbl0mPHimZoKhvimbwwe+eJdmdaxDRBF4E7tp6k8tx9re+3zXjjLfzww09QVhIRR+wSOKVRIxDRyk/mTBeLNMfuMNfYWb/eVw4B4RGAu8Zh+3HVcps2rdGta2fk5g6sqe9NdQ4e7Nqpd6e9kQATcYHzFmzKkCV5Chi9amvg4Ycfw+49eyLRo4hpUAJ169b5ecHnb7YxaHmirAgQ6Nt76Djyi5s44onA8GHXwW6v6Ra8fKPd2XZGJHhEVOA8rk25DFmZuaXWVnxhoRsz3/xfJPoTMQ1O4OyeZ73+9Pi7bzJ4maI8jQj06zO04I8VS5wahRNhTEKgVavTcf991V+JZOZ5mVlpF0SilYgJnKeg5GYZNJUIlkCFL1jwOeYv+CKQmfg8BgkMyj0Pg84fOMaWlao8eCSOGCfQr89QjvEWRXs1EHhh0via2LCFKT0jK0XzdzIiInAeV+kjf5zF44IdaSFwwZKKPTtF4PzX54n+bXekPB57HYqOqhIQAhe/50MtAgcG357pTHtJazqaChwzW9xFZVOJoWoFYiFwWg+reeIdF7ijJT9rd6beb57qRaVqCQiBU0ssduxrEzgAc+zO1Iu07lYzgSss3JAqsTQVoFy1RQqBU0ssduxPEjjl6copNkeKdu8kxA6qmOhECFxMDGNITQQQuAqW5PTMzLYlIQWvwUkTgXO7N/WAT34VQEYoxQmBC4VabPicLHDHuvqv3Zlq7p1kY2N4NO1i5cqfT73vnru2aRpUBDMNgQACBzDdas9KCbyNi4qOwxY4b9GmwbIsK7vwtlSR9wRTIXChkjO/Xw0CBwY+zXSmXmL+DkUHlQTcrrKxd465J7RVuwVG0xMIJHDM+CQzK/VSLRsNS+CKCkpvIKJXAU4IpyghcOHQM7dvTQLn74o5z56V1t/cHYrqKwkUuUrcY8bcZxNE4pNAIIEDcLjcdyS9R4/2m7QiFLLAuQtK7gbRc1oUIgROC4rmjFGrwB1tKSI3n81Jy7xVewpLr2fGzEgtYWdeMvFTeRACp1y5GZnpTJ2uFZWQBM7jKnmCQQ9oVYQQOK1Imi9OEAIHJnon05Fyjfm6ExX/eXmyVFnwtL8QuPg9J4IROCJ8YHOk/k0rSqoFLhKbEwqB02o4zRcnGIE71tU0uzN1lPk6FBW7XaXKXoD+HYSFwMXv+RCMwAG0P4nl9C5Zab9qQUqVwLldpW8BuFaLxFVjCIHTmqh54qkQOBDoOZszJTLbNJgHmekq9RSWzmLGECFwphs6TQsOTuCUlHSj3ZmiydqUQQuc21X6KQDNX8RT2hECp+l5ZKpgagTO3xjjEXtW6v+Zqsk4LrawsORsien4fl9iBhe/J0PwAodZdmfqlVqQCkrg3IWln4MRsZ1XhcBpMZTmjKFa4JTvd8BYmzN1kjk7jq+q3QWlU0C4pbJrIXDxNf5Vu1UhcHso4Ui6zdY+7I2RAwqc21U2GeDbIzksQuAiSdfYsUMROP9FDOKbbY405f1LcRiUgHvl+g5sSXAToa4QOIMOko5lqRA4EOEGmyP1zXDLq1Xg3K6S2wGaHG6SQP5C4AIRit3PQxW4o0R8V9qd7WbFLh1zd+ZxlT3O4AerdiFmcOYe03CqVyNwzPxOZlZa2E9O1yhwblfZlQC/G05DwfrGm8AlJSWhZcvTsHfvXuzcuStYTDFpF57AKZcrpUE2Z5sFMQnHxE0py3IlW3xuEFrHq8DVrVsXzZs3g8ViwZ49e7F9+3YTj2j4pasRuD8euN15uMKSftZZrcOCVq3AFRWUXEBEc8JvKbgI8SJwZ599Fvr26QVl87/KQ9nFvKxsE+bMmY8tW34LDlgMWYUrcAoKC7hLhjPt+xjCYvpWlGW5AP7LslzxMIPr0qUzsvv1QceO6SeM4/btO7Dim5X44ovFph/fUBpQKXCQZflqR/e2YU2y/iJw3sKyvjLzklAaCNUnHgTu79dciR49smpF9M67s/HNN9+GitGUfloInNI4S3KTzMy28T0dNtAZoCzLRaC/LMsV6wJ38UWDMWBATq0jUVpahpkz/4ftO3YYaMQiX4pagQPRVLsj5dZwKjtB4DwFJQ4GfQxCm3CCqvWNdYF7/LFH0LBhg6CwvDj5ZaxfvzEo21gw0krgABTZnamOWGBi9h4ql+Wqro9YFrgLLxyE884NbunULb/9hgkTJuPw4cNmH+6g61ctcMAPdmdq56ATVGN4XOCKijY2JpbywLCHEzAU39mzP1y7/KsVJ87nQwlkQJ/LL7sE/fr1DrqyAwcO4Iknn8W+ffuD9jGzoYYCpzx59arNkTrCzDxioXa36+iyXPEkcB06pGP0bSNVDd/XK1bivffeV+VjZuMQBA4y+ewORztPqH0fFziPq2wig8eEGigMv5I77rx3JhEeCSOGIV0bNz4Fj457SHVti/OW4JNPdLsFqro+LR20FLhjdYldwbUcIJWx3AUbBoIsC2tyi9UZ3M03DUNGRleVtIBxjz4RNw+ahSJwYL7HnpX2vGqwxxz8AldUsPFSIumjUIOE42dhaj96zD3XxaLA2e1WDB+mft/OH378CVOmaLagdjjDE3HfCAicUvMtdmfqKxEvXiT4CwFPQck9TDQ+ngSOiDDh+achSZLqMyKe7ruHJHDgBXZn2iDVYE8QOFdpAQHOUIOE6kdEl9gcKZ/27T10XCwK3JVDr8A55/RUjUd5feChf8fHalQRErjdkKWB9u5t4uuJHdVnmvYOblep8nJujd/qYnEG16zZqfj3Q/8MCeYXXy72P0EdD0doAodDdmfq8YUC1HIiT2HZ1cz8tlrHsO0J/7I7Up9W4sSqwF191RD07NlDNap9+/bhwYceVe1nRocICZyy1El+hbx1YFZW1hEzcjFrzUWuEg+BrPE0g2vRojkefOC+kIZs8eJ8fPLp3JB8zeYUosCBZTkns3vb/FD6JXdhWR6Ys0NxDsPnv3Zn6vFvebEqcFlZDlx37dWqMa1btx6T/zNVtZ8ZHSImcH4YPNHuTLvLjFzMWrPbVcq11R6LM7jk5GQ8+8zjIQ3Zhx9+giVLl4fkazanUAUunPtw5HaVuQHWbRt5Ivx2RKZeWVkp6ysHKFYFrkWLFnjwAfW7uyxf/jVmvx+VW6K6/8xEVuD8KzNfb3ekKts8iUMHAh5X2TwG13jPJBYFTsE65s7RaNs2TTXh8c9Nws8//6Laz4wOoQpcOMt2kcdVVsrgFN2AEd1qd6ScMD2JVYFTmN44/HrYbBmq8E6c9B+UlJSq8jGrcaQFjoDvKRG9rNbUnWZlZKa6a1rBpLKHWBU4ZREHZTEHNcf3P/yIqVNfVeNiattQBQ7MP9mz0jqG0jx5XKV7GGgYirN6H/7I7ky7/GS/WBa4xIQEPPfcU0Gjeve997Fixcqg7c1uGGmBU/gQ6EmbM+WERX/Nzs2o9Z+8/9vJdcaqwIXyZfbZ8RPxyy+bjTqUmtcVssAB2HfwYKPevTvtVVsUuV0lWwFqrtYxFPuappqxLHAKpzPOaIV/3H4LlMVXazvcbi9mvBFfV9P0EDgA5RaiXhmOlIJQzlvho46Au7B0JRjVPl0VywKnLKo8cuSN6NSxQ0Bg06a/jtWr42v51HAELtQHTajIVfISgW4LOCKaGNB+lnzdMjPbllQNF+sCV9nrFZdfgr59/7qqibKjwKLF+Vi27CtNKJspSHZO382XXXJRKx1qfs/uTL1Khzxxn8JdWHodGNXu5RXLAlc58Lnnn4f+/ftBefjk5KO4eBXmzF0QlwurhyNwoT5oQnq/5M3g+zKdaSe8CBovAqec7E2bNkHLli392+Xs3rUbv23diq1bt6K8PD6fZmfGoy++8Oz5AKl/YVCllLDEvTIz075W6SbMQyDgdpUtBHhgPF2irNqrxSKhU8eOaN6iORIsFii7hmzcWIpt27aFQDM2XMIROJblRzO7tx2nlgT516CUpdUA9PgWrdwQWc0k96668ns8CZzaAYp1+w4d2n9w+62jlsmEywnoG9F+CU/bHan/imgOEdxPwOMqvYiBT+NV4MRp8FcCURE4pYyi7zaOI0nSby1IgtvuSM2sRCAELn5/HHS6B3cUMGG13ZHaLX5p69u5p7B0FjOGVM0aD5co9aVsnmxRE7g1BSWnlxMpN+D1mcUpr+AyXmUp6QGH4/TfhcCZ5yTVulJdBU7ROJkybN1TVmndh4j3VwKFhWV9pZP2lhQCF79nStQELiqzOEXkgPUS04R/P/p4+u5du6Kxk0H8nm0G6Vx3gTu2/qlB2o/5MooKSqYT0c2VjQqBi/khr7HBqAqcUpXbVapsD67ubUUNxivWNzzVAFHMhtBb4EB0k92R8nrMAjVYY6tdm9ofYXkZCC2V0oTAGWyAdCwnHIELdUWiE3b09otcFNamFAKn41lmsFR6CxwD92c6U58NhGHw2mlDCXQniAqZ8S0sWDqv3c3xsbxMIDgqP3cXlv4DjBeFwKkEF2PmYQjcAcjc2949rUgtkr8InBLA4yp95I8VU1U/kqk2eaW9ELhQyZnfT2+Bk4nPcTjSVgQiN2jd9P4SQ9mZuurhBuFDIt+7c868ZW2gGOLzPwlUrlEpZnDxe1aEKnChviKgkK5W4PwiV1hyBTPpsp+6ELj4Pen1FDgizLY5UocGQ/v8da+2T2CuWcSI8iD7np/bYVRU9zq5cP3UdMgJnUDcSfbJ9ZXe5nUcpduX02BYHv3SXNaHwUuFwAVLLPbsQhC4w5Ik3WjNbBPydm41ClyVk1LZWjqkhS6DHSIhcMGSij07vQSOgL0MXGN3ps4JluIFa6fXuvXL0ThcCEhPz02/eXawccOxG7ju9TaJ8CkifRkYXQA0qRqPwNfOSR/5v3ByRMq3qKD0yTFj7xXvIUYKsMHjqhS4VTLxyGCuttTWdq0CpzgqrxAcZh5FkjQiUq8RCIEz+JkZwfJ0ETiifB9X3Ol0tvOqaeWCtdO/A5AVpM8Cn08as6DTTT8Gaa/K7ML1rw5gWXkATL4SoEY1OctAm/npI35WFVwn49Wrtza47ZbbVS+Yq1N5Ik2ECQQrcMz8cTJwW5estF/DLSmgwFUmWL16Y8uKcmk4Mw0Hc3q4iav6C4HTkqa5YkVY4CrAeP5AufToOee0OaiWzOB1054hJlVbNTPz8HkdRr6hNldN9hesmz6SGNcw0C+ImO656SOOL6AQhL3uJv36DA1iVqx7WSKhDgSCETgCJtmcqWO1KidogftT6FY3OHK4wXAwhgPQ5IdJCJxWw2m+OBEUuFkJEj3XLTNFmYWFdAz6cdogSaJ5ap2JMH5O+xGqhPHkHIqwgTESgDPY/MQYP6dDeHmDzRWqnRC4UMmZ369WgSOskUh60prZRtPL66oFripmb1HZMGYMZ+aw1hAUAmf+kzfUDrQUOAJtksEfMvk+dDjaLQ21pqp+F6ydrsz86qiNRaAP5qTf/De1fpdunNG4wuebwcyXqvVlxsB5HUZ8odZPT3shcHrSNlauGgWOaEJyXenJzp1bb9e64rAErrIYT2Gp8oM8/I/3hQaHUqAQuFCoxYaPBgJXBMJyMJYn1qk7r2vXFvu0JHPB2ukf/7Fc6yWhxaRP56bfHLRv7vdT0iwJCcuVLQTV5iOCd077ETa1fnrbC4HTm7hx8v1F4IjyLcRPZmSmRuxLmSYCV4nQ5dqYa4GkXLoM6lHsSj8hcMY5CfWuRI3AEfA9A14GeyHBU16e8M1ZZ2n/ra8qg0FrXxkoQVoYKhcCnp6TPiLgk4MXrp2e/cd9tryQ8xDdP6f9zQFfYA81vlZ+QuC0Imm+OFUEbg8IT9odqc9EugtNBa6y2KKi0l7ENJz8szqWAjUhBC4Qodj9vBqBUzbM2gqirZDZKzN7Ey2SR0re6+3atWt5NEhcsHbaTwCF/GCVLMuXze84SpkJVnuEK25g7CBOss7peMMv0eCjJqcQODW0Ysv2mMDNksnypMPR2qNHdxERuMrCVxX+bDvCPmVGp4hdjY82C4HTY6iNmSOlTes3x9x9+/M+H22dNy9t67hxJBut0gvWTb8bjOfCqUuqL9f/rNWoAyfHuGj9tO6yTMrL4s1Djs+YPLfDiDtC9tfRUQicjrANluqFSc/daHemzNCzrIgKXGUjLte69hZKukEROjD/5f6CEDg9h9xYuZQdvZcun2W4lTeqUhrCsywH1u4uA4W+nRQRXpzTfsSdJ9O/cO30RQz0D2dUmOWe8zqMWhlODL18hcDpRdp4eZYsm6WL3lTtXNeE3367sWVSgnTDsVcMjq+OIgTOeCejXhWZQeAUFhese/UGMIf1fhtLUvd5Z96k7LvoPy5YO+1+gJ4OizXhw7ntR1wRVgwdnYXA6QjbYKliXuAqea9evbpB+aH6NwD++3ROIXAGOxN1LMcsAndUkKYrG6V2DQPPf+emj7hO8R+8cZqdKkh5laFhGPEgEwbMbz9icTgx9PQVAqcnbWPlihuBq4q9qKD0ho8++mTckqXL04w1HKIaPQiYSeAuWfd6mwr2lYXDhRMSTp/XdviWC9ZNfxGMf4QTC6Bn5qbf/M/wYujrLQROX95GyhaXAqcMQN/eQ8cR4REjDYaoRR8CZhK4o7O4V4cAPCtkOoR7pAp8KFvYXduakgHjM9wWWer7aaebTLW2oxC4gCMbswZC4GJ2aEVjNREwm8D5Ly+unf7IHzevQ30wZj3L8n9JkkL/Qsf4QZIx+LNOIzaa7cwSAme2EdOuXiFw2rEUkUxCwIwC55/J/TTtHhCNDxGzstp/65B8GXsTExNSPm47fFdI/lF2EgIX5QGIYnohcFGEL1JHh4BZBU6hdeG66Vcy410dyW2emz5C9TJeOtYXMJUQuICIYtZACFzMDq1oLJYuUVbtZfD6VzJIlt4J8+nKgCcIA5/NSx9xcUBDgxsIgTP4AEWwPCFwEYQrQhuTgJlncCcI3U/THiOihzSnzLyPmZ+f13FUqPf8NC8pnIBC4MKhZ25fIXDmHj9RfQgEYkXglNYvXvdqe5n5fgZuDgHFX10IM5nk5+edOapYk3gGCCIEzgCDEKUShMBFCbxIGz0CZhC4vn2HDibGZQC3D4pUoiVZalLndGqU1AoWSgrKp9LIx+V84Mg23ntkO+89HMT+WFIJZMxa8tV781XliZKxELgogTdAWiFwBhgEUYK+BIwucP16XTkIEqve1VtfioDROVbyEAKn95lhnHxC4IwzFqISnQgY/Rdzvz5XzgB4mE44wkkzb8myWReEE0APXyFwelA2Zg4hcMYcF1FVBAkYXuD6XvkKmEdGEIFGoemtJcveu16jYBELIwQuYmgNH1gInOGHSBSoNQHDC1zvISNB9IrWfWsdj4luWbr0PcPXKQRO65E3TzwhcOYZK1GpRgSMLnBKm/36DFW2uHFq1HIkwhSTpYsjP39cRSSCaxlTCJyWNM0VSwicucZLVKsBAVMInMFncQQam7/svUkaDEfEQwiBizhiwyYQAmfYoRGFRYqAGQTO4LO4dRVyA8dXX71uil0FhMBF6ifJ+HGFwBl/jESFGhMwjcAZdxb3wJJls57SeFgiFk4IXMTQGj5wXAlcdvZVWbJPvonAnUDUDIxuhh8hUWAECPBqAL8fD0zSTyzzyqXLZ70egWRhhTTcvTjCL8kVyY7Pv35ra1iNRdD53HOHnHLkMD0AoAPAjUGUCcYpEUwpQhuQAAN7CFz458857SVgTf7SWRHdsPePba30P8QGp/ozN1tGI87s+hlvFvfYkmWzHjbq2Pbte1UbYvkjgz+gY1R88VLXtiXLZjWPVLO6C1y/fld2h8zfRqohETeGCDANXbL8vdlG6shAs7gdFl+CY/HXb5caiU/VWvr2uXIygW83an2iLsMQmL1k2ayhkahGf4HrfdV1IPnNSDQjYsYaAeO9vGyUWRwDzy1dNuteI494vz5Dfzx6aVIcgkDtBMjC6fn5s9dpzUl3gROXJ7UewliOx/lLls3OMVqHBpjFHSSLxZGf/84PRmNTtR7xQImRR8dYtRHLOfnL38/XuiohcFoTFfE0JGBQgYvyvThmvLR0+SzDX/oTAqfhj0KMh4oZgTPKJZ4YP19ioz3mD5csn32FEZuJ5iyOSXIsXfpukRG5nDSD+wVAK6PXKeqLPgEZPtuyZR94ta6k2hlcTu8hEVuWSCapB8Ava92IiBd7BJhpmgXyNCN25pNoEDEe07s2Zn7aAryvd95Q8skSTQCjbyi+wieuCPzOJF1qkX2Hte66WoETTz9pjVnEC4HAFgDuEPx0dOE6ANXTLSFhPxia/xKIYP0NANgBKH+KQxDQnYDu9+AqOzz6sAn3Ayhb965FQsMSYNBKiXh5/tJZ9xi2SFFY0F1mXc8AAAAlSURBVAT69BnSRYJ0L8DKz3la0I7CMKYJMLCDgIVg+iiSrwL9P/AFN9rqfSG9AAAAAElFTkSuQmCC;" vertex="1" parent="OGXLcFdzuTNNJpqdDNey-7">
          <mxGeometry width="130" height="59.09" as="geometry" />
        </mxCell>
        <mxCell id="OGXLcFdzuTNNJpqdDNey-6" value="终端用户" style="text;html=1;align=center;verticalAlign=middle;whiteSpace=wrap;rounded=0;" vertex="1" parent="OGXLcFdzuTNNJpqdDNey-7">
          <mxGeometry x="35" y="59.089999999999975" width="60" height="30" as="geometry" />
        </mxCell>
        <mxCell id="OGXLcFdzuTNNJpqdDNey-8" value="" style="group" vertex="1" connectable="0" parent="1">
          <mxGeometry x="220" y="210.91" width="80" height="89.09" as="geometry" />
        </mxCell>
        <mxCell id="OGXLcFdzuTNNJpqdDNey-3" value="" style="shape=image;verticalLabelPosition=bottom;labelBackgroundColor=default;verticalAlign=top;aspect=fixed;imageAspect=0;image=data:image/png,iVBORw0KGgoAAAANSUhEUgAAAMgAAADICAYAAACtWK6eAAAAAXNSR0IArs4c6QAAIABJREFUeF7tXXecZEW1/k7P7iKoDxVdRIIJlYdiQlFERTADKooYWZegy/Ttmc2BJcgsYclsmu4elihggCUpTwQUFQMKPFAkiTxMqMACigkJM31en+qaoXd2em5V3Vs9905X/bX7m3NOnTp1v650AiG0YIFggZYWoGCbYIFggdYWCAAJX0ewwDgWCAAJn0ewQABI+AaCBdwsEFYQN7sFrg6xQABIh0x0GKabBQJA3OwWuDrEAgEgHTLRYZhuFggAcbNb4OoQCwSAdMhEh2G6WSAAxM1ugatDLBAAkqGJ5lnYHNOwN/XjaxlSq6NVCQDJyPRzEUtBWK7UIfwUBZRoDW7LiHodq0YAyARPPZewDxgVANtupAphLdajl9bhqQlWs2O7DwCZoKnnbrwMBQWMD8eqQJhDZayOpQsEqVsgACR1k8YL5AgnAVgcT7kBxT0glKiM6yz5AnkCCwSAJDCeLSuXMENvp55jy9tEfxmmoYdW4oEEMgKroQUCQAwNlYSMu/EmFFAGsGsSORvwEo6hMo5OTV4QNKYFAkA8fhi8EM/G41gB4EueunlEb7su9iS/48UGgHj6BLiE2WCs8iR+tNjrUUAv9eP2NvXXMd0EgKQ81RxhD0DdTu2QsmgTcRVsgoW0Av8xIQ408RYIAIm3kREF92IbDKnt1CeNGPwSlaiiQBpaQgsEgCQ0oLBzpA7LfSmISlPEnQB6qYIfpCm002QFgCSYcY7wCb2d2jKBGN+scoBfSBXc77ujySg/AMRhVrkHO6GmtlPvdWCfGBbG0VTFMRPTeX57DQCxmDueh03xFJaDMdeCLUukD+pt1yVZUirLugSAGM4ORzhEvYITphmyZJlM3FVk2/XLLCuZBd0CQGJmgYvYHYTTAOychQlLWQdxgDyCKvhXynInjbgAkBZTyT14CVhtp2ZOmtkeeyCDYPRSFQOTfJxOwwsAGcNsHGEhgFOcLJpXJlbBWQupiu/ldQg+9A4AabIqF7Gv3k69woexcyGT8TUwjqAB/D4X+npWMgBEHvpKeC1qWA7CRz3bO0/ij6QKjs+Twj507WiAcB+m4WH0gbHUh3Engcw/A1hAFVw0CcbiNISOBQgXcZDeTj3fyXKdxES4BjUcQVXc0knDlrF2HEA4wjsBtXV4d6dNduLxMlbiP1hG5+GxxLJyIqBjAMJzsCWeVg6F3TmZm6yq+QQIC6msIiQnfesIgHAR8/V2atJPaBsHeAsKOIL6cU0b+2x7V5MaIBzhI3o7tVPbLds5HV6ILvTRGtw3GYc8KQHCPdgBNbWd+vRknLSMjqmPKliWUd2c1ZpUAOE+TMHDOBqMI50tEhiTWOAP2rfrq0mEZIl30gCEI3xBb6e2yZKBO1SX74CwjMq4Me/jzz1AOMI76o/hEvL6gbxPxqTTn7Cm/pQgQHk0r2PLLUC4Fy9CTW2nSnk1fofo/S8QjshrbuFcAoSLmAvCcXWP22d3yEc2GYZ5c/1Zuo/KuCpPg8kVQLiIvUFqO/XWPBk56LqBBb6ugfKbPNglFwDhEl6tzhmMz+XBqEFHIwsci+noo776hXyGW6YBwgxCj/K2/XKGbRhUc7fAb9UhvoLz3UX45cwsQLiIA/R2anu/JgjSM2CB79Z1kIfGGzKgywYqZA4gXMLbwOoV/ENZM1bQx7MFGFWZexrAes89GYvPDEB4Hl5Qr8Qn26leY+0D4WS0wD/AWEZVnJ6FwWUHICVsoQ/iASBZ+DImSgfGP9V2KwBk7BngkqrCJDdWH5yoOQr9TpgFBjAVfbQKD02YBqM6zswKMtog2rdKziIvz4qxgh7eLCCZHuWQ/hNvPTgKzixAZDzqmreEY8VD1HF8gS3LFmD8UW+nzs2qmpkGyLDRuBc7YkjdbO2fVUMGvSwtQDgB63EUravPbIZbLgAyAhRJ7CaFaghvyLBNg2rjW+AS1LCMBnBHHgyVK4CMACXCYu3ivlkejBx0lP0yblPXtwO4PE/2yCVA1PkkwosB5dF7SJ4M3oG6Pq6dE3OZ6zi3ABlZTbqxJwrKwzfkucoe+s5EDUe6vIxzhG2zUDYuMwDhSB3CH6AKznCZZy6iW/tuycoS2kRagPFDvZ36oYsaHGEVaricBuDE79JnK56sAURWgntRwwE0gJtsB6qTNpwExnxb3kCfigUkl694557pIo1LOBiMsxVvDXsEgDRZUa8gApDhdjEex0w6D0/YGpt78QYM4jgQ9rHlDfSOFmCcQlV1eWLd+FC8BV3K5f2/R5gDQDa04xgAGSZYShWcaG31xkH+s3U+2bpJwFVoPixAuFzVE6ngblvxqijqk5BHwo3zlwWAGANECB9BAQe4prnkSB3iBSihpWeBOyQ5Hw3gUheRXMTSekHU5S15A0CsADJM/F1Mw0xaiQdsJ4W7sTW6cHII27W13Eb0T2p39BNcJHEJe6GGC0B4wbj8ASBOABlmOpkqWOI0QZHKnyXlD97iwt/RPIRzMQ0LaQX+amsHLuGlYLWd2sOINwAkEUCEeQiEA6iMbxgZfBQRR5inX+M3d+HvMB7xspWzoJO3LUdYCWCOlc0CQBIDpCGA8L8ADqQy7rSaADnE92ITDKnJCzVDxjbeQ5Iwg6pYa2tboddVvM5x4Q3XvBv/osshuvma19auZ+JhFF28Q7mEN4NxMoD32nY6aekJp1MZC1zGx93YBV04F4wdXfgVT1hBUlpBRs8AIaIyqi4TwyXMAKvzybYu/JOE50oMYQGdgXttx8OzsDmmKNvL9XqyFgDiCSCNbdd9qOEgquLHLrPEJZwIdrsEcOkvIzy/BuEwKuObLvpwhMMAON1sjdlfAIhHgDwj+hJ0IaI19WLPlo1nYzsMqvPJxy1Z80Y+BMZRVHX7uLmEfcA4D1BJN9JrASBtAUijk0Z28daPUuNMKxfxYRDEVfu16c1+ZiSdjy700hr8w1YjnQ5W8ljtactrRB8A0kaANLr6Gwo4kPrxLaMJGkXEERYCCmRTXfgzxvMzceikKn7uohcXsQKEuS68xjwBIG0HSKNDxvdRQJHKsM4uzrOwGaao8scHGk90tggfAWEJleF09bqBt63vcQWAJAAI4WsArsMQfosubAvGKx2uiE+lCha5zDNHqvzCKkDl8MpLO40qahW0bhzhnQAG2rrNDABxBAjjU1TFutGzrEuxXQTAtkbhQVRRh0zrxpFaSeR88kJr5vYxXIUCeqgfv7PtkrsxHV1YMSH+awEgTgCZTxWsaDXR2n3EPqcr4xcAIuc9eaRA4vTrbPvRWtDfC8Y8quLbFjwjpLHeti5CbXgCQKwB8neq4HlxNuYIjwFw9a86B9OwgFYqGVaNe/By1NT55MNWjD6ICYuprEBr3bgb+6GgtlMTuyoGgFgD5Haq4PVxM84RfgVgpzi6cf/OWOCaPFm/C8j55BWJdHBjPg+DKNFaPG7Lzt14HQrq3Scb7jYBINYAuZUq2Dlu4jnCLQDeHEdn8PffS+JT16KTXMQSkFskpIFuo4yHm9CFEvUrx02rxn2YhodwkvdrWyutcuyLJQ9ELlekcfYZJ+R2mPVhqtSr2sU0jlTxlRfF0Vn8XUJKF1IVUi7MqvHBeC42Qbnu+jLDitGc+G8A5rqWMOMSimBUzLtrI2VeVxD9Ict5oOVh2cWMBgARsQupgtNayecS5oLT1WukL8JxVMZRTmMr4u0gdT5JY2VrqEA4icrK/8m6cQnvBavt1OusmdvF4AEgEnpNFSyzGYJ12p+mD1lS1g9QBZfYdNjy427kxTJxdx/zWpbnYis8hb+kocs4Mv4OoEQVfNWlH45UFsjVAJKkTL1S63C/rQ7ci21Qg6RFyn614BQBUj+XfqJ+JpSsKae0EyDD8yNvCMdTBf9nO2HN9IYryDN9Em7CEO5GF7YHq7cPE3AlUfEZXkmMJqtZVZ13rBtHqryYRDSaN8Z9+pxxjTlTk8p5S1yRAkC4iNeDVCLCt2tLSA2Stq0gzfP0MAj9VMYxLpMnPJYAce0mbb4KNsNiOhX/thXMEaR6r2y7JEY+ro37/jMes059JNup2PNbnBJt/XsCgKiz36Y4FYxZo3SeMIAM63Fr/R+ihGwDrBqX8H4d1fdGK8YsEDNmUxVrXFThEj4GVkDZeiN+xlmYgh5agydtZXMRO8s5JTPXtjYDIFyKGhY7XYw0nEpbvQFNOEAaZmB8Q938DEBSUVo1LmG2BsomVowTTSzp/QtYRGVIzW/rxiUcrqMZhfcG1NBDA+qF36rpmzO5ti1aMWaBmHAXhrCEBvA/tupwD/ZDTV3gvHQc3owApKHhIAiHu7zoci/+C0Pq1y9/yRTkx0FesiuwP0TPxfMwiL2oXzljWjeOVOYQ2U7lrzm+/ut8ApJ58/0Gg84UQBr6JtlLlvA2sALK7gaDzxqJ9WS4DkAHdYmdknkQuCqQhE9ybT2NxbQWj9iK4W68BwX8wIJPEmtbZdhMcs1rplcCgAx3oL1m5QPI10GT8EewWk3Eyzj1xr14pb623S914f4F/lzZxjFvgKgXANI0STqHldySOWUQ9z/f4/RAuAaDWEJn4La09OASloOxNC15bZTzd7UFLbvl2mrWMwBkjFnjSKXIl9XkI22c1LS6WoUuLHG5lcr9atoYwCqqmIXqmlSY6iiAqHeQAr5iGtjDJXxc33bJe0Ke2j/11kJcyo0bl7CrPo+9y5gpO4TXgrGIqsrTOrapVKU1XBFXQKfzACKv4YQyldETa0V1myz+tljadD1qwpYVmptRwGLqH7/MGJewhQZGHouV3q+3U0b5k7mImSAd3Wlwdu1MgDzz+X6RKrocV8wnzUW8AqRe8T+fla/fWA/GBfUHsS+0oq872LGxrCwREo6hspn7j3YJuXCDW7gAkA1ns4Wryd06g7u80Mc2LuJ9+vU4Pa/Z2F4TEjB+SNXWJQFyCJB1mIY5JjVcWDbV61VJhI1/IAJAjADSIJIsJgUcbHq45Uht0SQZ9aYJP1//7JMHIHfos9V3TIwWG5oQAGIBkGdIF1EFpxpNgLh2D6lr0MiEfsJo8g+Qmly9jxen02xbLmJ3EGQ7NX72mQAQJ4AI00MgfJ7KkHiU2MYlvLu+i5fXU7PKRrESUybIN0DOxnR0Ux8G46zCs/BCTFEJ68yu5wNAnAEyzHg1AAmeejBucuTvXMJMfRu0pQl922jyCZAbUMAc0xh4LmGZFOKxsmkASGKANAQwllMVR5gYn3vxIgxhPuAWqmrShzVNvgAiMfCyzT3bZJxcxL4o4EIwnm1CvwFNAEhKAGmA5Cm17TIM/+WGE6ScTz5mPXFpM+QHICuoon5cYhvPxqswqLZTkrLUrfkBiLUDaWacFVOKKLwRQziYzsBdJrOio+3kfPJqE3ovNNkHyNUgdFMZfzAZP5ewGoxeE9pxaQJAUlxBNrb0AKajRH31UvcxTZUNm4rShL3GZxcgf0ABs03LRSQq2DnWHAWAeAVIQzjjUNMKrdyNN4Ewz2MOq7GhmkWAMI6mqll+Ab1dlTNJugWGAkDaAJBGF79Rj4z9+GncaqIw1UgRI+eTt5jQJ6bJFkAuwiAONkldqgt29gM4ILENwgoyvkOe/jBN82K5zodMfo9J5BrPw6Z4EqV6R6KT/Q2MjYbZAMjtIBxKZfzMRHUuYT64dQI/ExmxNH5WkPxGFKZ0SI+1OxiHUVXFk8Q27sWOAiqvCRAmFiCDqGE2DZiVzVahvcDZ9VxTW8UaLylBAEjiLdadwEiNPUkMZrMHlqq3h5imJ9IZ26UmX/qZzycOIGfUH1mNkmLo0g6yndor6XdvzB8A4gwQCe4/nCo4s1lCrPPb2DNzLYbQQ2fg3riJU56nD6MHNRyW6i9o+wHyE+2BYJQJk0s4Fowj4+yT+t8DQBwAQvg3lfGcVpOhX8olu7tdY5xEVbPXdZURUcK02Cx0NFaR9gHkUUmjZPyY2oPPoaZezJ8VOwYfBAEgDgBp3EZJ/EDLVi9/IN67kqnQtg2C8UWq4ismjCoTJNADxkdN6Fsr3IZ4EMZxVDXLTK/zTMl2amILlAaAOACkhm3isjXq6LQk2UNuBqGXyrjR5MPnCIdKjQ4AO5jQb0TjdwW5EoOYQWshWenHbbrEtaTszEZ4QACINUB+RRW8IXaiG1e01iXINpJLWKsTmsV/XBG2VauJS0oiPwD5HRgH1SMVr4+zl/xdB5g55RY2ke9EEwBiDRCzClNp1wkhzKOyWTpPHQwk7yf7G38UaQOEMIfKqgZJbNMhygIMt9UvtocEBAEg1gAR15Fd40o1cw92Qw1yU5NmkxufXqpAYlBim/ZLEqDE1lREWgBhnEtVHByrnKwYjWhLCUn+rAn9hNAEgDgABLiKKth7vAnjCDd4PGCuQwFLTHJ38RxsiafVa7ycT57bUufkALkVQ5hh7MFcxJdBdkVkAkAsLGD94m3wS6D3wWauJoS9W1WetdbNYtyjSI+lilmEnE74JkAZOyWRK0AaMTAHUgVfNxkGl/ApsNp6ZSuispXyBt9Np+fFaj3vjQIr14LwfUXE2BOEfYzjnU2+qHiaR9EonGNUqoAb7wpykN/w+tQNICdTBUviVQT0rZ641nzIhD4zNAEgTluszMxfkyLX6eyBsbm7WOp/PK3eTmRFebEGt3leLMY1mIIZtAbiKjNu4/0xDdNVwU7Z4uWtPYgaPhtSj46aNh3hJ4fH8VPCZHG6pYzakKpzEXvFrB7jGo+MBxke0h8EYwZV8T2Toau3GVKRfdNM6DNFY5NjoFPrg3ARx4ImwP8n+ZciEYxzqAJ5iY5tHOGTsprEZFaU2vBmucAk51QBJ4OxS2znWSNgXKrKr63FfaaqddQZZLRRVL5dyY5IyGNxmFvBWGLyiy8v2Carzngfjb4xk5W3ZY5f049uAujuAGFJq4uXccfdqStIs1G4qK51BSg7TsDkJeuykTJV6oH8KZmg1txcxFIQlvuS71GuJJuTjIwrXPvo6BVkoxWlUd5XfiWtM7G4TkCKfF+mCo5NUZ4kwstrfRS5dVwLwgKq4F9JbBIAMvoQL7dAT6lQT6MX4yTG98D7e10PZF0S2arCFqsVVa6189au19spI0fQuMEFgLSwEBfxLpBaTSSSMG/tan0+Maq2NDw4VSwoUmOWlTRvTdLDLqEKzk9T8QCQGGtyEbM0UDZP0/BtkcVYiUewhNbhqbj+OIJUl5LHvi3iaDP3d4trW1vdJwdAgDv1L+a3bQ1gSs9FrADl8kHsH/qgekarsXIJPwFjN1NbZIjuMhDmm2ZktNVbXd6Q+tGwyUWQwawmz4z8Cp1R5B5bY5jQqwwkNZwOxgdN6DND4+Zqkhn1x1DE6w8iF/EaEE4EsK+DETINkOHxnIoKFpOqwZl+4258Bl3KxWK79KV7kDh5ADKkXW5O92ClRsHW5GewXABE7PeYvs1Y68OYIpOLWAYy87j1pYOR3MkBkDMxHZFJIR0jm4wi4hJm6douz3Phb+LJDUCGdb5Z0ujQgPbKTTj60ew6y4kkcDCP8EtZh1hx+QbIj9CFubQGv4gdpwMBd2NPFNR26q0O7GOx5A4gw4OQmAa5Brw/JUNsIEZlIGHI0v86H/ITycwjQAgPqYKdKV/bDtuRGzH+cgBPO+IxtwBp2MaitrbLR6lzyspbQpcLvxeevAGEcAKVcbgXWzRK5dmXazNXxj9A1P4+wqc1wl9qrpshJeMB5b9UxgWGHFZk6rBXwlrJgWXF6Is4PwC5HFNRpFV4yIcpuIQZqOGkVLNWPqOoFP+RHcpFtron8mviSCUjO8a2U0P6H+n3k58b0luRcYQ36gRz77BiTJs46wAh3IUa5ph4JruYhot4u37PeLcLvwFPIj+4RABRq0kPXqKQ76tOBHAOGAupCikgmXrT1W/Fo/T5qQs3EZhdgEhsi8SiOHvbjjd8LuL5IBXn4suv7kKdYOMvJtPQiiYxQIYFcw/eo67i/AXrLKWKutHw0riE08BmRSpTVSCLAGGcRVV8KdVxNgnjSOVBPsGLfMJN6gmhP74mjUn/qQFkBChyZy03EIykd9Yb60+4T73GG1azNTFAMw13Y2sUVNZ4qYPRnpYtgPwYQ+g2TSFkayAVQSmv4IxX2vLG0hMeU+eMMlJ9W0sdIGrbxeogLHleF8QOzIVAkhd0YRH143YX9jgeLmEvSIw58LI42sR/zwZAJCP+bJdDrMn4uQc7YQingLy5AZ2GMhYRpe+d4QUgI6uJxC407rM/YmJIB5p+DGI+SRZdD41LONx79duJB8jxVPET/8+zMBVT1PuTpDvy0a7Ut1N3+xAuMr0CpGnb9THtKvAaDwN5AlDbrlUeZIP7MA3rVRyDXG2n3yYOIFdgEAeaZH53GTRHmFOvLSJnRh/1Re7RrkrfdNHNhqctAGkCyiINFB/93qFed6v4jo0BTGk5Uu4OZwF4vSmPEV37ASK/trOoknr+YjVcVcewEczmw2tBNu9yzpDte1uajw91XMV18rRTvD3UES5X8c79+J0PC3KkbnfkfDI1FfntAgiD60XkSlQ2K9hpOzZVx1Aq3zI+bstrRE84C1OxiFaqw3jbWtsBMrKa+H4gYpxCVSz2ZUkuoV9nSEzWRTsAwqhS1V9hHC6qGPlFyQzRktvrg3GczhMGkBGgRCqXkxzkG6k4023yuCguBhsU/EyrC56Ll+Ep5RLzTmeZfgEi0YgzqYrfOus3DqNeTWXufDyyeoljt7XDhAOkCSjHATjCdgCG9DeDsYCq+LEhvRUZF7EvZAvgEjPuByAPg/AlKsPLIVYnzZDsMmm5oY+2t7ebNauJbdctlqlSPBvbYVC5H/iJ32gkcpP4hdjkz6Y6N9NxhKPr/5cyDuYtbYAQjqIy5Mcm9abia2pYCcbnUhfeELgOU7CQVuOPnuRbi83MCrLBh9aDD2q3ldiahNYjFgbGMVRVH3PqjSNVplq2XWYx0+kB5GI8jpl0HuTaO/XmNUKTcJt2D7kmdcUTCswkQIbHxEX0ak/PTROOcyx2cWITZzyjAjS2/XM3dkNBAeXl4/ImB4hc286sV9662VZHE3qdcV9W9ZeY0FvS/Ed7bGergGjTIDINEPVj34cpWK88Sn29xl6PLszzFjYaV7c9CUAIh1AZ51h+lEbk3Is3YUjZfXcjBnuifkzHPF9x7PbqjM2ReYCMrCbiz1NT55MPpDX4UXLOxiBmJ8203ko3jpQT3cYesi4AYaykKub5sIOuly6l2iRZnY92LQpY6MuPLm2FcwOQJqDsj5p6qfXjSEhY7Oullkt4tTqfNIcE2AHkOhTwBepHohiHliAuQTwdxLY+Wiq5iX0oNp7M3AFkBCglHAlON2N6k6Gk7PN8qkCc4VJvXMT+IHU+2cSwwtR6DQwvh1iOlDOpOBVun/pgRaDHmzUv+jYJzS1AZAxcwhaoqbSjMzwZ6mpMwWxajXt9yOcijgfwjrQqTNnqyLPxKgyqyrd+CnwyLkAB86iMR211ywp9rgHStO3aDTVVFuFtngy7mirKOzX1JqGnvsKJx1OWI+X9PDv1ATUE3oiC8of7qSf5bRM7KQDStO36ot5D+3B9eEInY662bXY8dMQlFHWOMB9u6H/T6UfFq2BStEkFkBGgRMod2lcdDYlilEKdP8jTF8AR9qj7TMmqsZMnvU+lijeHRU8qx4udlABR55OG+7W4RXw03gxOFJehgF5fN0pOGo3BpLPOyEPcJ9KSuYEcwrek9ISv8AIvOlsInbQAadp2SXy5nE92sLCLOanHAjHmSoxNqS4ByFsWxF+ruJsyrkqqZ5b5Jz1AmoAyH6y2XoXUJ4Tw13rG+rm+skHa6quyFEKtni+w5TWgr0nsB5XVtfCkbx0DELXt6sUmGIJsN/zkfGLcBEYvDeCmifhyuBu7gLAGhF089X8mutBLa/CkJ/mZE9tRABlZTRppR1d69DM6X39IUmLNe+Ne/JcGvgSf+WjXqxWygl/6EJ5lmR0JkKZt12f0ledWXiaJcThVPWUQ1ApzEUtBWO5Ff+ABfbX9DU/yMy+2owHSBBSfKff/rJOyXZbm18CRupWSV/Ct05Q7IstzKQovOnsQGgAy/EvcjekoqPPJpzzYWfyRvo9B9CZN68mHYkdMwRow9vSiJ3AxauocJdkWO74FgIz6BLiEd4PVg5qcU3y0Cqajl/og2dONG/ehgPUKwJExkx3hL0GYQ2X8yI5tclMHgLSYX45wqPZw3czLJ1DAbOpXH3xs4x70oqa2Uz7a49pzuWWtdh+d5kVmAEjMTHEJK8CY62lCfwOglyq4diz5HKngMAGRxJGk3wgrqewn8Cp9ZSdGYgCIgd05wvZg9HvLTi7uGk+jl9Y2snnwLGyHqeqc4cdNRrLjE3qoAol7CW0cCwSAWHweOrBIzifjJ2KwkDmKdDiaz1dGSEnHKo6WXgLB3IedXc4AEIe5Yb+hqQ4aGbB4DCU26D23JAEgjlOnkhtMVfl5D3IU0R42wrl4Gj2+klG0ZxAT10sASELbcxE7q/cTxq4JRaXLTviZes+o4pZ0BXeWtACQlOabI3y+7j27GuTFg9ZcS8ZfQaqc2lfNmQJlKwsEgKT8bXCk8uL6SsIdp21mkj7HKZqXvweAeJgpnoWt9DXtfh7EbyyScKm+Jn6gLf11UCcBIB4nW8WBkzrI7+ilG8JdYPWekav4eC+28CQ0AMSTYZvFciM/r7iKdKXU3ZD2EK6kJC+IaWGBAJA2fhpcwmqJOEzUJWENlb3ls0qk2mRkDgBp86xyEa9R2y7gfZZdf09tp6q4x5IvkCewQABIAuMlYVVl2xrvJ9uMK4fwJ/2ecUWS/gKvmwUCQNzslhoXRzisnsT6hBYCl1IFJ6bWWRBkbYEAEGuTpc/AB+O5eJbadg0nXTgfT6CHzsE/0+8tSLSxQACIjbU806q0PVItYILSBnkeXi7FB4DkctqC0u2yQABIuywd+smlBQJAcjltQel+3VNUAAAAXUlEQVR2WSAApF2WDv3k0gIBILmctqB0uywQANIuS4d+cmmBAJBcTltQul0WCABpl6VDP7m0QABILqctKN0uCwSAtMvSoZ9cWiAAJJfTFpRulwUCQNpl6dBPLi3w/yX7e243cJTlAAAAAElFTkSuQmCC;" vertex="1" parent="OGXLcFdzuTNNJpqdDNey-8">
          <mxGeometry x="10" width="60" height="60" as="geometry" />
        </mxCell>
        <mxCell id="OGXLcFdzuTNNJpqdDNey-4" value="阿里云服务器" style="text;html=1;align=center;verticalAlign=middle;whiteSpace=wrap;rounded=0;" vertex="1" parent="OGXLcFdzuTNNJpqdDNey-8">
          <mxGeometry y="59.09" width="80" height="30" as="geometry" />
        </mxCell>
        <mxCell id="OGXLcFdzuTNNJpqdDNey-11" value="" style="group" vertex="1" connectable="0" parent="1">
          <mxGeometry x="430" y="220" width="60" height="81" as="geometry" />
        </mxCell>
        <mxCell id="OGXLcFdzuTNNJpqdDNey-9" value="" style="shape=image;verticalLabelPosition=bottom;labelBackgroundColor=default;verticalAlign=top;aspect=fixed;imageAspect=0;image=data:image/png,iVBORw0KGgoAAAANSUhEUgAAAN8AAADICAYAAABoKjQPAAAAAXNSR0IArs4c6QAAIABJREFUeF7tfQmYXMV17l+3t+nZVy0jjVa0ICGBkMQikDEY28EOsYN3CPjDzwlMz/QdiRAneYn9lHh5cWyD+vZMS2A7i+M4wQ5xwAb7mdUs2pCEVrQipNE6kmbfeqaXepwWM9Pdc+ve29toJNX5Pr757HvqVNVffXTr1jn1HwYpEgGJwEVBgF2UXmWnEoFLGAGvVytmzLaCMcyKRjGL/gJwMaacBfi5SAQb8vIKX/j+9x/oNZqmdL5L+Ecghz62CHi9jSpjypcAvghgBSa9dwD8Z5zbH/P7H3pXT1c639iun+ztEkSgvj7waUXhfoBNTX34/BxjrM7n8/wiua10vtTRlC2uAARWr/5ReTQaupdzfh+AmzKdMmPRm3y++s3xdqTzZYqqbH9ZIdDQEFjMObsPiDndlOxNjv+7ptX9iXS+7CEqLV0mCHi9gU+SwzHGvpSrKUWj+ERjo+c3Q/blmy9XSEu74x6Br33tx0XB4AC94e4FsDL3A2Y+TatdJZ0v90jLHsYpAl7v+gWM8Xs/2FrOSHeYjAEVFflwuexg9D/gREtLO0KhsK5JzvGs3+/5lHS+dBGX7S5ZBLzepo8B7D7GYm86e6YTqazMx9VXVw2bmTBhOt555xj27Tsmcr5X/X7P7dL5MkVetr8kEFiz5p/z2tv77gPYvZzjjmwOevbsclRXFyU437ZtB3H06BnpfNkEWtq6tBBQ1fVzgEjM6QDMycXor7tuEoqKXDHTjCmoqqrBCy9sQ1eXfmIL55BvvlwshLQ5PhCor193h6JwesvR9jIv3VGVlxejqMiNY8dahCZWrpw+/MzhyENRUSWeeeZNoT7n+K7f7/krue1Md1Vku3GHwJo1a+zt7VX3XojP4WOZDHDq1CrU1ExAdXUFdu8+goMHT+iay8uzY/nykTBgfn4x+voYXn99l7D7aBR/3Njo+R/pfJmskGw7LhBYtWrdjGg0OrS1XJDuoPLynDGHo//KygqHzbz22i6cO9ehazb5sKW4uBJHj7Zi796jwmGEw3xyIFA3/EEo43zprphsd9EQ8HoDKz84saQ33ciJR4ojKisrijnctGkT4HI5ElpHIlE899wmYdhgzpxyTJo00nV5eTW2bDmI06dbRaM4qmmemfEPpfOluGBS/eIhQKECxlg9gLszGcWUKZUxp6O/Ijlw4Dj27HlP+PyGG6bE4nskFOOrqpqGX/96IwYGQrptOMdTfr/ni9L5Mlk52faiIKCqgZ8AuD/dzunNNrS1LC8Xvyz372/Gvn3NiEajwq5sNoYVK6YNP3c4XHA6S/Hb324RtuEcq/1+z1rpfOmuoGx3URBQ1QBPt+PS0sLhrSV92+lJV1cfyOmOHz9rqZvCQieWLJk8rOt2F6GjI4wtW/YbOd/Nfr9nk3Q+SxBLpfGAgKo2PQaw1amOZfLkiti3HJ1eiuTkyfOxbJTOTsML56OaU2CdAuxDUlxcgQMHWnD48ElhX+XlZ21r1qxJeJ3Kb75UV1XqjxkCDQ1N/4tz9iOrHTqd9uGtZUVFsW4z2k7S9xxtLTlP74W6ePFElJSMhBDLyyfj9df3oq2tWzTUzZrmGXUnUDqf1ZWVemOKQG1toMxux07GUGPWcUlJwfDW0u2+kHGSLB0dPTGnO3HinJk50+e33DINijLiOpTT+fTTrxm0S7zNMKQonc8UaqlwMRDwetepjHGfUd+TJpXHtpZ0kCIS+o6j7zn6rsuGOJ023HjjCJuE3e4E5wV49dUdQvOc83v9/rr/SFaQzpeNFZE2so5AQ8O6DZzzm0WGly2bh+nTJ+o+DocjsbccOV22pazMjWuuGXF2t7sQZ84EsWuXLkdSrPtoNDKrsdE7Km4hnS/bqyPtZQUBoxNOCo7fcceSUf3QN9fBg8dBBym5kpkzyzB16sj3ZFFROXbtOmGwnWUtmlY7SW880vlytUrSbtoINDQ8cSPnkYRj+XhjixbNwty5I1s/Sn4+cKAZ3d39afcZa8gYnJNKMXi6XWhn6dJq5OePZMOUlU3Ciy/uRF9fULdN8gXaeCXpfJktl2ydAwRUtakBYAkB6fhu7rxzKdxuJw4cOBF702UqtkI3XNOr4KgsRs+2w4j06DsSHbLQYUu8FBdPjqWhGcj/1jTP/5VvvkxXSbYfEwQaGtb9jHOuS2TkcjlBGSoGOZSWx+icWArX9AlQ3B8E3zlH15v7wCP62S1utwPLllUP26fDlmDQiY0b9xr0ye/QtLpXpPNZXhapeDERUNUAnV4QBXvWhdltsbeca+rovM5Idz96tosPTiZOLMDcuSPt8vIK0dzcFTvcEYnT2Vv4/e//hW4UX247s7680mAmCHi9/1TFWNBanlcKHdlLC+CaVgV73JWh5OYDJ84j+K4+BQTpLlxYhfLy/OFmdNjy1ltHcO5cp2gkuzTNc63ooXS+FBZQquYeAa+36W7G2LPZ6sk5pQKumkooSVeG9Oz37j6GsDhLBTfdVAOHQxluSoctzz33Fuj6kUCe1DTPQ9L5srWa0k5OEVDVAF0dz4gpmhyNtpbOySP5l1YG3b3pAKKCK0F2u4Kbb05MtnG5KvDii9uNTH9F0zz/LJ3PCvpS56IisHr1Y+WRSB7lf428XlIYkb2iCK6aKthLRraGVpuT03VvPggI8j2Li1249tqRcJ3N5kBnJ8Pbbx8SdsG5stDvf/gd6XxWV0HqXTQEvN7AnYzhhVQHQA5HW0vmsKXaFMxmg6swH9GuPpx7daew/bRpJZg+vXT4eV5eAQ4ebDUiWOrSNE+J0YDkN1/KyyUb5AoBVQ38AMAjVuzbCvLgrKkEhQvSEXueC66ifOQVFYApDOc37UOnAf8K3d+je3xDUlhYhjfeOIjubmHO6O80zfNx6XzprI5sM+YIqOq6zQC/wahjR1VJ7C1nK3KnPj7GYg7nKiqAM+n2Q/Mv30DI4LAlniaQOi4qqsLzz281GAP/pqbVfUM6X+rLJFtcBARUNUBUYbpbNWZTUHTzfNDfVMXmdMQcLq84H4pt9NY0GAzi1M9fAw9FdE0n0wSSUjRahDff3GMwFOWTmvbw89L5Ul0tqT/mCNTVNc612ZQDoo4pBaxw6Wzr46I8zQL3hTddgfgtSUVNuk6eRcdL4u+9ZJpAm82Os2fDsboMInE4bFU/+MFDhhne8pvP+nJKzRwi0NDQ9ADn7F9FXVC8zn3VCG+KSE9x2GMHKHnFBbA5jGuhRKMcPT096Dt8Cr1vHxHObt68SkyYMFKC3eXKx549LThzpk3U5pCmeeaawSWdzwwh+XxMEGhoCDzPOe4SdZa/YBocVfrUENTGke+Gq9Adczqr0tfXj1AohK4N+zB4SuhIuOGGqXC5RrarhYWleOmlvRgc1C8FBuDfNM3zgNk4pPOZISSfjwkCZsH1ohvnQkliH6PvP1fhhW85u0ufmUw0+IGBQdC3Hknb81sR7RvQVbXZFKxYkRhcdzhK8PLLYlp4xnidz1cXMANOOp8ZQvJ5zhEgvhaHA5TPqbtPZE47im+ePzwOu9sFZ2E+3EWFYKmfvyAciaC350Kuc7R/MOZ8ouB6Mk0gtenvd2Hr1oNGuCzTNM82M+Ck85khJJ/nHAFVbVoBMGF5H0qGLrxuFpx0764oH0532sWHYnPp6elFJHLhZHPwdFvsGpFIpkwpxqxZZcOPFcWOEyf68e67p0RNQprmsfQals6X85+W7MAMgYaGwDc4x9+J9IoWTkfl8vlQ0ggzJNvs7w9icHBw+P/u3XkU/YfEfJuUUkapZUNChy1btx4HsaEJ5HVN83zIbM70XDqfFZSkTk4R8HoDrzCGD4s6qf7EjXCnmCStZ4sOV+iQJV46Xt6JcJvQkWI31+NpAgsKiBZeHJZgDN/z+TxfswKYdD4rKEmdnCKgqgH63tOllqbUr5kPfCyt4Hr8oIfCCslEua3PbAYP6Z9aJtMEkr1IxI0NG8S08Iyxz/p8tU9bAUw6nxWUpE7OEFi9et2USITrV6CkEEJJAaZ91tIuznCMvb19CIcTnSzc3mMYXC8vd2PhwkRO0PZ2xbB6kd3Opz32WJ0lYhnpfDn7WUnDVhBQ1cZPAcpwtdbkNkVXVWPCbcLL4Fa6wMDAAILB0aGE4HstMcIkkVA9BqrLMCSKYsPhw11CakLGcNzn8yQyLBmMUDqfpeWTSrlCwOsN/JAxfFVkf8Jti1F0Vfp3a4lAt7dXvxBK96b9GDghLGYZI0si0qQhcTppy/ke+vv1Y4IA/y9Nq/ucVayk81lFSurlBAFVDewGcI3IeM1nVsJZOlKqOZVBUBmUnu4eYa299t9sQ6TXOk2gw1GAl18W3o2lIpmP+ny1dC3KkkjnswSTVMoVAqoaoAtxupnPitOBmfffmXbXyWGFeEN8MIzWX20RBteJGJcIcuOlr8+ObdvE7GaKwm5du7ZWGK9Mnoh0vrSXVjbMFAGvd90SxriQBCVvQimm3C0s12DY/eBgCP39YgZrYqXuelP8Fps0qRBz5lQk9HHmTBiHDGKCNlsw//HHH7FMmy2dL9NfkGyfNgINDetUzsWViEoXz0LF8nkp26cafJTFYlR/r3fPMfTvFx6yYtGiiSgtHcmkURQFe/e24fx5fZpAxvhWn69ueSqDlc6XClpSN6sIeL2BXzOGT4qMTv74MuQbVJYVtdMLKyTrdr6yC6FWYTHLGFMZMZYNidOZh1deOQiKF+oJY6zR56v1pgKQdL5U0JK6WUVAVdcdB/hIxZMk6zPv/ygUp/GdvOQBUUiBQgtm0vrsZtB3n54QNydxdMZLJOLEhg1ipjLGcL/P5/mpWb/xz6XzpYKW1M0aAo8++r2CwcGCLhFNoL0wD9O/cHtK/VEQnd56ZhLu6EXHi+JillTymUo/x0t7O8eePeJ6f4xhvs/nEd7E131bmg1UPpcI5AKBhob1H+U8+juR7YJpEzDpo0std010m3Qrnb73zMQsuD5jRhlqahIv7h492ofjx4Ulpc9rmkc3Pc5oLPLNZ7ZS8nlOEPB6m77PGPtzkfGqWxaieL7lZJFYwjQlTlsRIscdEDsSrr9+MgoKRm4FMcawfXsLenr0DzI5x3N+v+cPrfQtt52poiT1s46AGU3g1E/fAleFmDYifkB0RYhielal/bfbhDX4GANuvXV6gimbzYVXXxVfnuUcX/f7Pd+y2v+QnnzzpYqY1M8KAoY0gXYbZn35Y5b6oSIltN20KlR7r/WZTYDg1NLttmPZssR0tt5eevMdFXbBOT7q93tetDoG6XypIiX1s4ZAff0PZypKSEgX5iwvQs0f32qpP8rbpPxNqzJ4ph1db4iD61VVBZg/P7F235kzgzh06LSwC5vNWfH4418VMzAJWso3n9VVk3pZQ2DVqnX3R6P8JyKD9K1H33xmYjWsEG9n4MBJdO8Wv8UWLJiAiorEbLcDBzpx9izx+Y4WzrHX7/cIc1ON5iCdz2yF5fOsI+D1Nv0nY+wLIsOTPnI9CmYkHvUn6xLZbV+feVghvp3NZkPnq7sRbGkXzimZJpAOWzZuPAHqTyA/1jSP8FaGdL6s/3ykwUwQUNUAXaIT0k/PuO8jsCXRBMb3R2ljlD5mJawQ3y7f7caJn/9eWINPjyYwElFi14gM5E81zfOjdPCQb750UJNtMkJAVQPEYDRyUS7OGjkdOZ+RpBJWGLLjcjqBvhBO/s8bQtNFRS5cd91IDT5SbGsLY+9eMcGSovAla9fWiSP2BhORzpfRz0g2ThUBrzdwE+3kRO3ckytQ/QlxoaJ4slurfdttNuTludFz+CTOGxQ3Sa7BR/aPHetFc7Ow5EKvpnnSu2wo2cusLp/UyxYCqrru6wD/e5G98mVzUXat/o6UuDZpu5mqFOTngzEF59/YjR4x32as8mw8TSD1s2vXeXR2ivpkL2labdoXDuWbL9WVlPoZIWBGE0j39+gen57Ek91aHYTL5YLDfmGHS1vOkNCRMIomkNq8/rq4EhHn+I7f7/kbq2NJ1pPOly5ysl1aCJjRBM568A907VJdBdpypiJ2ux15rg/u5HHg2E9fABfkflIhFDrpjJfe3gi2bxff+YtG8anGRs+zqYwpXlc6X7rIyXYpI/BBTQZhMNpRnI9pn7ttlN10wgoUIqDTTdpukvSfakXLC+JKshUV+ViwIDE3+syZIA4dahHOk/Nwjd+vir3TBCHpfCn/hGSDdBFoaAj8Eed4RtS+cFY1Jt6eSBMoIrs1G0OeywX7B9tN0u3cfQTt28X38ebOrcDEiYlnJwcPdqClRf/mOoAjmuZJoVrn6BFL5zNbRfk8awh4veueZIz/qcjgxA9fi8LZyaRFfUYBbl1TDrsdrqHt5gcaZ373FoKnxRlgyTSB1Oytt04hGBTelPiZpnnuywQc6XyZoCfbpoSAGU3g9C/eDnvBCG9KOmEF2m7S6WZyGZLjT72CSFD/m5FqMVBNhngJh6PYuNGQeFrVNI8/JQCSlKXzZYKebJsSAqra1AcwAU2gHUQbMSRGZLdGnebl5cFuS6SeCPf248R/vSZsRnf36A5fvLS1DWLvXnEytaIoK9aufVgYr7QCjHQ+KyhJnYwRaGgIzOMcwgojrqoSTP2jFcP9pBNWcDgccDlHynkNGTMLrifX4KN2x471oLlZyGYd5Tyc7/er5mQxBshJ58v4ZyUNWEFAVQPE7KWJdEsXzUTFDReqzxqR3YraE7UfnW7qVb1r3bgX3Qet0wRSH3v2nEd7uzCgv0HTPLdYmbeRjnS+TBGU7S0hoKqBXwEQUi0M1eAbDIXQn1RDz0oH7rw82JK2m0PtTj7zJkLiYpajaAKpnVFwHcBjmuYRUmBYGS/pSOezipTUywgBQ5pABsz+yl2xWwpmZLd6g3A6HHDqbDeHdI/9mzi47nDYcNNNycH1ELZvF5Z9Ju7OLzY21j2VESDS+TKFT7a3ioDXG4gypv+PPZ1w0kmnFbLb5P4ubDfpdFNfgmfbceY3W4TPy8rcuOaaxBp8p0/34vBhYTI1sR3O1bSHxUFDi6DIN59FoKRa+gg0NDR+iHPl9yIL+TVVKL9tkW4NPbNe3W43bIpNqNa5+z20bxeTHyXX4CNDhw514MwZYXD9lKZ50q9ZFjdS6XxmqyufZ4yAGU1g+U1XQ5lannI/TqcTTscIxZ+egTMvbEXwlLgGXzJNINnYtu00+vpEeaT8l5pWd0/Kg9VpIJ0vGyhKG4YIqGpgMwDhJb2KTywDyx8dIjAySpQQ7jzdkGFCs+anXkFUEFyngPyttyYG14l89403xDcZAP6Xmlb3j9lYcul82UBR2jBzPtrD6ZJwMpuCij9OvQwYhRWoTLORBLu6ceaXG4QqVHWW0sripb29H3v2nBW2URT2kbVra1/OxpJL58sGitKGEIGGhrUTOXeeESnYivNR9rElKSFIlBAOk+1mJBJGx6HjIHZqkVAiNSVUx0tzcxeOHRMTLCmKu2zt2gf1qcxSmoUMNaQIl1RPFYH6+qYvKAr7T1G7vJmTULjU+uWAIUoIs3H09feha9shBN8V+j0WLpyA8vLErevevefR1iYMrr+taZ7rzfq2+ly++awiJfXSQkBVA/8B4IuixsUrF8I5Uf/mul6bIUoIo8EMDA7E6jZ0vLADYYOb6zfeOBVOZ+LWdcOG4yAWbD1hDOt8Po8nLSB0GknnyxaS0o4uAl5v4BBjuEoED33v0XefFYmnhBDp03azP3ihbkPrf28U3lynwpdUADNeBgbC2LJFzFTGOX/Q76/7FytjtaIjnc8KSlInbQSMaAIVlwPld4uZyuI7TaCEEI6Go6+/P5YpE27vQcdLO4WaRJREhEnx0tLSg4MHxWEJxnCtz+fZlTYYSQ2l82ULSWlnFAINDYHFnEPoAY6qEpTcZs60nkwJIYKaKtKGwhcuv/YfOIleA1r4GTNKUVNTkmDq8OE2nD4tLBXdrmme1IORBr8L6XzSaXKGgKoG/hrAd0QdFFwzHe75wqrQw82SKSH07FFV2uDASJmwrjf3YdDg5roeTeDbb59BT4/+LSHG8Bufz/OJbIIlnS+baEpbCQioaoDiYcLazhRioFCDkehRQiTrE308nW7S3yFp+/VbBsF1YMWKaaAb7PFifJOBrdG02r/L5hJL58smmtJWsvNRtFq/XLLCUHnPyOVZPehElBDJuvTGozffkPBwBK3/s0m4Gi6XHTfckJie2d09gB07xGEJxqJ3+3z1v87mEkvnyyaa0tYwAmvW/NzZ1nZeeNPbVpCHsruMa67rUUIkQxwOhxAcSOxm8GQrujYKL82jqiof8+cn/ptw/Hgnjh4Vx86j0ciUxkav+J5RGmsvnS8N0GQTcwS83sCdjOEFkaarphJFN84TGhJRQsQ34DwaO92M327S896d76H/kNhPyPHIAePlnXfOobVVVHKM79e0uqvNZ52ahnS+1PCS2hYRaGhoWs85e0ikXrxiPpzVialdQ7pGlBDx9pK3m0PPOl7cibDBzXUq+0zln+Nl0yaqwadf4ZYx9i8+X+2DFqduWU06n2WopGIqCJjRBFZ86iYwh35itBElxNAYKKRAoQU9af3lRlDtdT2x2VjssCVezGgCOWcev792XSrzt6Irnc8KSlInZQRUNUB7ON07P8xuQ8Wnb9K1aUYJQY2itN0UVKWNdPWh/XdvC8dbWOjEkiWJNIHnz/dh375zwjaMRW/y+erpWlRWRTpfVuGUxgiBRx5pqgmHWbMIDXtZIUo/kkgLT7pmlBBD9oLBfoQj+lvE/sOn0bvjiHAhpk4twcyZibmk777bhlOnhMH1YDBoK37yyYeE1NXprrp0vnSRk+2ECHi9jV9hTPmxSME9bwoKFs0Y9diMEoIahEKDGBgUVyvq2rAPg6fEtPCLFk1EaekIKzbZpBADhRr0hHO86vd7hLHKTH4G0vkyQU+21UWgoSHwK87FNIGld14Le2liURIrlBDRaCR2umkkbc9tRbRfzGVLydSUVB0vJjX4vuv3e/4qF0stnS8XqF7hNs1oAis/k8g3a5USoj/YD6pOKxTOcf5p8c11uj5E14jipa8vhG3bxGEJxvB5n8/zi1wsqXS+XKB6hdtU1QAdNer+tpQ8J8r/cHkCQlYoIQZDgxg02G6SwcEz7eh64x0h+hUVbixYkEgTSN969M0nEs7DV/n96ru5WFLpfLlA9Qq2WV/vX6YotrdEEDgnlaH41gXDj61QQljZbpLB3l1H0X9QfB9vzpwKTJqUuN3dv/8czp0TBddxVNM8M3O1nNL5coXsFWq3oWH9NzmP/q1o+kXL5sA148Lbx/J2s78PEUE55/h+Ol7eiXBbjxB5PZpAujxLl2j1hHM85fd7hLfwM11i6XyZIijbJyDg9QY2MyamCaTLs3SJliQ/Px/KB2WbRTAODg6A6jdYEaPgul4NPrJpUpPhzzXN85iVvtPRkc6XDmqyjRABVQ1YoglMlRLCDPJIbxDtv9kmVMvPd2Dp0kSawI6OIHbvFtdcVxR2+9q1ta+a9Z3uc+l86SIn241C4Ctf+W5RYWFRlwiaIZpAa5QQiN3RI0oIKxJ8rwU92w4LVauri0DU8PFCtxjoNoNIOA+X+P2qcD5WxmWkI50vUwRl+2EEVHX9J4DocyJI8mZNQtHSq2J19JjJdnOIgcwqvN2bDmDghLi4iR5N4K5dLejsHLn9ntTXZk3z6OfAWR2UiZ50viwBKc0ADQ2Bf+UcD4iwKL19MQqrK2G3X/jmE0k8A5lVXNue34ponzi4rkcT+OabzVTuS9AF82la7Sqr/aejJ50vHdRkG10EVDVA+z4hA+7kL94GlysxtWu0oREGslRgPv9fbwrV9WgCBwcj2LxZXK2WMf5ln6/uJ6mMIVVd6XypIib1hQioaoCOJRMvyn2grTjtmPalO0xLQsYzkFmFOnSuE52/3yNUp1xOyumMl7Nne3HggFENPrZI02rFRq0OzkBPOl8WQJQmAK/3idmMRYQnHq6JZZj8B8YcnckMZFZx7dvbjL59x4Xqs2aVYcqUxDotxM9JPJ36wlo0rTaR1NPqYFLQk86XAlhSVYyA19uoMqb4RBrly+ejeMF0oQE9BjKreHe8sgvhVuGVIFx33SQUFSWWIKN8Tsrr1BPO8azf7/mU1f7T1ZPOly5ysl0CAl5v4AXGcKcIlqmfvQ1U/lkkIkoIKzATUxkxlukJY8Att0wDMaHFi8lNhq/7/Z5vWek7Ex3pfJmgJ9sOI6CqAboKXqnrAArD9Ps/JkRLj4HMKrRU+JI4OkVCXC3E2RIv3d2D2LHjtEEX0U9qWv3zVseQrp50vnSRk+0SEFDVgOjMHvZCN6Z+5kO6iIkYyKzCO9B8Dt1bUqvBZ0YTGA7zyYFAnZjE0+rgTPSk82UJyCvZjKo2rQCY8Ky/cFY1Klcu0oUok+0mGex+6xAGjokryV59dRUqKxNpAqnyLFWgFcguTfOM5rjIwQJL58sBqFeayVWrAj+IRvGIaN4T71wK95TRO1IjBjKrGFI+J+V1imT58inIy0uMfmzceBzEWCaQJzXNI6Q8tDouK3rS+aygJHUMEVDVAFUiWixSmvHlj496ZMRAlgrcRsF1m03BihWJNfgiEY4NG4TcTnQw87DPV/tEKmNIV1c6X7rIyXbDCBjRBCoOO6bd+5FRaBkxkFmFNtzWjY6XxeXy9GrwESs1sVOLhDF+g89XJz7BsTo4C3rS+SyAJFXECNTVNVbYbIowVcRVWYLJn0zMTzZjILOKd9/+E+jbc0yoPm1aKaZPT6zBZ0IT2HX6dGX5L37xeQOiGKujM9eTzmeOkdQwQEBVGz8PKE+JVEqvnY3S60aqQlulhLACeueruxE6L77xo0cT+Pbbp9HTI6Qe/J2meUbvka0MJg0d6XxpgCabjCDg9QZ+zhg+J8Jkyj0r4SgaOW00ZSBLAVyj4DqZSYMm8Dt+v+dvUhhCRqrS+TKCTzY2owmY6oOWAAASz0lEQVSc8cDIi8QKA5lVRHkojNZnxAzuejX4+vtD2LrViCaQfdbnq33a6hgy1ZPOlymCV3h7o+C6ze1Czec/HEMom9tNsjdwohXdm8Q1+Ci2RzG+eKF661R3XSTRaGRWY6P3vbFaUul8Y4X0ZdjPqlVNV0ejTEiUmV8zARPuWBKbeb9FBjKrMPVsfxfBI+IklLlzKzBxYiJNIBVDoaIoAjmkaZ65VvvPhp50vmygeIXaUNXAXwP4jmj6VR9ajIKZk5EKA5lVKNt/uw2RHnFw/frrq1FQkHhjfsuWExgYEB5k/lTTPPdb7T8betL5soHiFWpDVQOvA7hVNP3pf/JRRBFFf1DsJOlCZxRcT4cmkDH+iM9X93i640mnnXS+dFCTbWIImNEEkvOlwkBmFdZwZy86XtghVNerwUdESUSYJBLGlNt8vodfszqGbOhJ58sGilegjTVr1ihtbROEezhHaSEq71qGkEXC21QgpHrrVHddJHRrnW6vx8uxYx1obhbSBIbCYV4eCNSJ6a5TGaBFXel8FoGSaokIrFq17sPRKH9FhEvR/Bq4rkksv5wtDLte34vBlg6hOT2awJ07z6CrS8hu9rqmefTvPGVr0Dp2pPPlENzL2bTX27SeMSbM/i//+PVQinSrQmcMS+szm8BD4gwwPZrAN95oBlFV6At7XNNqhbcyMh6wqNdcGZZ2L28EVHXdPoDPF82y8rOJNfiyhQaPRtH63xuF5vRq8JnTBOJ+n8/z02yN0aod+eazipTUS0DAiCaQOe2o+KMbc4LY4Ol2dL0prsFXXu4GbTvjxYwmkHNlod//sNhoTmYiKGCYo76k2csEgVWrnpgcjUaEeVqOCaUo+dDCnMyWDlrowEUkV11VjsmTixIeG9EEMobjPp8nNx+nJgjIN19OfiKXt1FVXf8gEP0n0SwLl8xG3uzc0F62/7/tiHSL67Lr0QRu3XoS/f36NfgAPK1pns9ejBWTzncxUL/E+1TVwLMA7hZNo+JTN4I5dImrM565UXCd6AFvuaUmJZpAxvA3Pp9HmKWT8YANDEjnyyW6l6nthoZAC+dI/LAamitjqPzMipzMnNLJKK1MJHo1+OjuHt3hEwu/S9PqfpuTActt58WA9fLu0/AmQ2Eeyv5gaU4AoERqSqgWCX3r0TdfvJw40YX33msXthkcZBPXr68V05/lZCYXjMo3Xw7BvRxNe73rr2UsKsztypsxEYXLRm6uZxOD7o37MXCyVWgyVZpAxvhWn69ueTbHmIot6XypoCV1qQbfNznH34qgKLntGjiqEnlTsgVb67ObwQeFByfQowncsOE4IhEhTeB6TfPUZmt8qdqRzpcqYle4vqo2bQGY8G2Rq+A6wZ5qDT4qfEkFMEXCGPszn6/2hxdrSaXzXSzkL9F+VXVdL8ATKaA/mAuz21Dx6dxUUg6d7UTna+JyeSUleVi8OLEGX1tbP/buNfycW6ZpHvEJTo7XSDpfjgG+nMyvWfPPeW1t/cIgm6OiCCW3C7lzM4KCKAKJKlAkM2eWYurUxO3ukSPtOHlSyG52XtNqJwBMWGMiowFbaCydzwJIUuUCAvX1gbsUBcLqPe6rJqPgulk5gavjxR0Id/QKbdNbj95+8bJ9+2n09opoAvnzmlb3yZwM1qJR6XwWgZJqVH226V8ZYw8YYZE3YwIKlswGsylZhcw4uH6BJpDo4ePFpAbft/x+z9ezOsgUjUnnSxGwK1ldVQMUZDN9tSn5LhReNwvO6sSYW7rYRfsH0facmMGdCqHQSWe8BINhvPXWSYMu2T2aVvvLdMeUjXbS+bKB4hViwyi4rgdBtrahVAKMSoGJZMKEAsybl1gF6cyZHhw6JI4JRiLRGU1N9WKu+TFYU+l8YwDy5dKFqq47BfDJqczHVpyPwiWzMor9UfFLKoIpEnI8csB42b//HM6d06cJ5Bx7/X7PNanMIxe60vlygeplaLO+3l+tKDajfZzhrPOvnor8hdPTQqbtV1sQHQgJ2y5dWg3K64yXzZtPgC7R6gnn/Cd+f92X0xpMFhtJ58simJezKa+36R7GWEZU6vbyothb0F6WSGZrhluqNfjIntFhC8BXaVqdz6zfXD+XzpdrhC8T+6ra9F2AfS0b0ylYNB3ueVMtmQq3dqPjFXENvqIiF+gOX7x0dg5g1y6jkuq2lZr20BuWBpBDJel8OQT3cjKtqoFXAdymN6fq6goEgyG0tYnLdSW3c0wsBV26tRUmxuaS9fr2HUffXnGKWE1NCWbMKE1oZkIT2BsM2iY8+eRDQt74sVo36XxjhfQl3o+qrusHuK6nLF8+H9OmTcA77xzDvn2pHSAWXj8bebPEt97NavClQRP4iqZ57hgPyyGdbzyswjgfw6pVTddFo+xt0TDvuutG5Oe7Yo9bW7uwY8dhdHRY5591TqkAOaHiSjw0IXtG33v0XI8m0Di4zn/g99c9Oh4gl843HlZhnI/B6133EGN8vd4wibrhnntWjnq0Z897OHDguOWZMYcttg11TRsp60XXh+gakUj0aAJDoSg2bRL3yxju8/k8P7M8sBwqSufLIbiXi+mGhsDTnOMevflUVZXiQx/ST6Y+d64DO3a8i64ucU5mss1Yetr1s8EUBQMnzqN70wEhjBUVbixYkMhmce5cL/bvF5aIRzRqu7qx8SFxYb8xXDTpfGMI9qXalaoGqKJkYvGDDyZTWlqAlSsXw+kcvWUcmu+uXUdw6JD4RkIyLorbGduGDp5qQ/A9cXETPZpAymqh7BaBHNE0z+zxsg7S+cbLSozTcahqgAhZthoNz263YfHi2Zg5U3xw0tLSHvsW7OkR0/6NcsJ8F6J9wvoKuO66ySgqciY0o3xOyuvUE87xC7/f8/nxArV0vvGyEuN0HKoaeALAn1kZHoUcbr7ZmCyXHPDdd8Wkt1b6IR2qwbdixTSwpF+wSXD9rzWt7h+s9pFrPel8uUb4ErX/6KPfKxgczP9GqoF1t9uF2267FgUF4vjd6dOtsbdgn8FbzQy2ggInrr8+Mc2U7u7RHT6RcM4/7vfX/c7M9lg9H5fOR1sdRUFNJMInMoYJxBF54S/T54ocK7SuqH7YTYzpx/WswDBvXg2uuWamUDUajcYc8L33jDJRxD1VVxdh9uzEK0t0a51urwskGgzaJj755EPi0xgrE8uizkV3Pq/3idlAmM6q6dtiKWOM/iZu5LM4YWlq7BAoLS3EypWLDA9jTp48H3PCYFB041x/vHo0gcTXQrwtAtmkaZ6bx2725j1dFOd79NF1E0Kh6N0A+0POY7TjNvOhSo1LEQG6Xb5s2TxMnToSv0ueRzgcwdtvH0Zzs/hkM7mNPk1gMyIRYQ2+gKbV1o0nDMfU+VavXjclEuHfAEAnTokJeeMJFTkWQwTKy4tiGSxEzWdVamomYPnyeaPqKMS3P378bMwJQyExNyfpOxwKbrqpJqFrKnxJBTBFwhj/qs9X92Or4x0LvTFzvgtXUpRvGxVUHIsJyz4yQ4AOUpYsuQq9vQOxDJa+vqBlgy6XI/YWnDRJTC8xOBiKOeCJE+LLs2VlebjmmkSawPb2fuzZI6YJ5Jxd7/fXClPkLE8ii4o5d77Pfe7nturq89/mHH+ZxXFLUxcBgcmTK2IJ1C7XhU/ySCSCI0dOg04vU5E5c6Zi8WJjKphf/WoDBgXs1LNmlWHKlOKELqkeA9VlEMgpTfMkkrykMuAc6ebU+VatWn9zJBL9DmP4cI7GL82OAQIVFcWYPLkc5eX6NPDkfEeOnDKiZR81ypKSAixZMgdkO1n6+wfw/PPinE49mkCqREQViQTy6/fJcYUlzcYAQt0ucuZ8Xm9gFWP4NgBddmOzCVPWRFlZIRwOe8J/Zu3k8+wgQFtE+o/SxpxOO0IhfUqGod46O3tib8Hu7tSuyV199XQsWJBIL0EnoJs26VdppqB6qjSBjOHvfT7P/8kOMtmzknXnq6/3z7TZ7N/mnH8plWHSAtO3QEVFCeiImj7qpYwfBCgtrL/fOBxA32vHjrWkvA2trCyJfUcWF18gQdq9+wgOHtTPBXW76buxOgEYc5rA6Kc1rf6Z8YPmhZFk1fkaGpq+wDmjKp+m3I5DQNA3xMSJ5THHIweUMn4RoFhct0FJ5qGRnzx5DkePnklpG0ptKT90zpwp+P3vd+L8+U5dICZOLMTcuRUJz8xoAsNhPi0QqLN+v2mMliArzneBw7/vOwBbbXXcRUVuLFw4A1OmiOM/Vm1JvbFDgGJy7e3mF2Xb27tx7NgZdHWltg2lf4TPnu0AZcDoiT5N4HnQVSKB7NI0z7Vjh5D1njJ2Pq83cJuiMNpm3mK12+nTJ8Ycj/IApVx6CFBMjeJ84bCw7l1sUgMDg7E3IN1oyJbo0QRu2nRC+E3KOf8Xv7/uwWz1n007GTlfQ0PgLzgHbTMt7Rcp2+Haa+nqSUq8q9mcr7SVRQRoC2olLYyC5/QWTCUorzdMPVp40jO+yQBV0zz+LE47a6bScr66usa5NptCTvcZqyOh7cSiRTOHP6qttpN64xsBq9+Bra2dsbdgb6/1oHzyzCsr80E5nfHS1TWAnTuNkrP5LZpWt2E8opiy86nquvsZ4xQ0T8zvMZgdOd3cuZbVxyNOckwGCFAwvLPTnCqivz+Io0dbQPQS6QhRBBJVYLw0N3eCqAIF0l5e7q5es+bB9D0+nYFabJOS8zU0rPNzzust2o695egImY6SpVzeCFDdc3JAg/rnwwDQFpRCEqkKESbNnVsJSi8bkl27WtDZKfIt9pKm1d6Zaj9jpW/Z+d4/WHkllUyV2bOrY993xG4l5cpAgHOgp6cvRqBrJufOtcccMJ0LtVOnFmPmzAuUMkbfe4zhez6fJyss22bzSee5Jc9Q1QBFPC3lxlFmCiXPTpmSWLIpncHJNpcmApRsTYnXZkKBe3oLEtdnqkKFUSjet2OH0fce+5Km1f5nqrbHSt/U+VQ1sBuApXJKlHi7dOncWFqSlCsbAasHMRTPI06XVJOzraAbiUTnNTXVH7SiezF0DJ1PVQPa+yTEXisDG8pOsKIrda4MBOheHgXZ9UIMdCOiufls7PDFSrgiDcQOaZpnbhrtxqyJmfPRl6xhJJwSnwsL3aPqYY/ZDGRH4xoB+g4kRyMHpNxPypChQxkK1OdSOMdTfr/ni7nsI1PbZs6XW4QyHb1sLxEQIsD/UtPq/nE8AySdbzyvjhxb2ghwjo/6/Z4X0zYwBg3NnI9Sy0ffdhyDgckuJALl5W4QJTzdUD91qjsVQAZstmD1448/QjT341YMnc/rbXqSMfan43b0cmCXLQLxsTyaJNVXP326O+aIZjmi75PjbnyfHHfFeAfHSqiBrhRfPd4nIsd3eSBA+ZvEz1JcrH/O194exJ49xtkxnLM/8ftr/328I2LqfF5v092MsWfH+0Tk+C5NBCgDihyNaquXlrpQVuYWTqSlpQcHD5qSNW3TNM+ySwENU+ejSahqYAuA5XoTomtChYWSYPpSWOyLOUZFASg30+Gwxf4O/VdcnDeq2EnyOOneIF2WPXzY9BOuj3N263ijCBThbsn5vN6m+xhjPzVavJKSPMycWRr7F0yKRCAbCPT2hmJOd/ZsLwYGjIl0qT/O8XW/3/OtbPQ9FjYsOR8NxOsNNDNmfo1o0qRCkCPSVoIuP0qRCFhFgA5S6H4e3VLo7LzwNwXZVF5+duWaNWvMvTQFo7lUtex8DQ1N9ZyzlG4E22xseJshbzfkchkvPduU4UJJLvGJLj095snYejNljA1yzh8F2CupIhGNKmGnM9z72GP6BEuPPNJUEwpFihhzKFZsKwp61q6tPWpF17LzffDt9z0Aj1oxLHUkAmOBAOc4pSjKtyOR0M5M+lMUe6em1e6Jt1Ff/8R8YDCRKs1CJ4zZQ35/LZ2TGEpKzveBA/4QwFfNDMvnEoExQGDH+zUE/yESiVov+G4wKKdTaR56A9Ibb3AwOi3dOdhstvM+n+eAUfuUne+CAzY9BbBxU9s6XYBku0sZAfYM57yR84j1Iu/m021tbPTuJzXiKWKMp81rabMpgz5f3VtZdz4y6PU2fYkxNADsRvM5SQ2JQFYQGADYbznHs5yHDd8qafZ2aTjf0ORUNeDlHCpjuCrNCctmEgEzBI4AeBFgL0Wj4ZNmyuk+z+a28/3307Aji8aT1rYz2djq1T8qj0QGVM6pjjeo9K5Mxk73FyDbEQKnAfY2Y9F9APZFItHYVjCX4nAoLY8/Xnc4vo/Vq5uuCoWiiYUALQyCc9ZRVTXh0Jo1nzcsbpEV50sez6pVjddHo7a5QHQGwKgEzQzOMUI5ZWECUuWyR4BKgTsYQxTgrYwprZxHD0ejbLuisDGsq8AGQqHo+XXrPLq02qtXP1YejeZVcc4scaNwHmrx+1VxZc+4Zc2J8132Pxs5QYlAFhD4/5o2M8gu2jVIAAAAAElFTkSuQmCC;" vertex="1" parent="OGXLcFdzuTNNJpqdDNey-11">
          <mxGeometry x="3" width="53" height="47.53" as="geometry" />
        </mxCell>
        <mxCell id="OGXLcFdzuTNNJpqdDNey-10" value="插税盘PC" style="text;html=1;align=center;verticalAlign=middle;whiteSpace=wrap;rounded=0;" vertex="1" parent="OGXLcFdzuTNNJpqdDNey-11">
          <mxGeometry y="51" width="60" height="30" as="geometry" />
        </mxCell>
        <mxCell id="OGXLcFdzuTNNJpqdDNey-14" value="" style="group" vertex="1" connectable="0" parent="1">
          <mxGeometry x="620" y="231" width="80" height="70" as="geometry" />
        </mxCell>
        <mxCell id="OGXLcFdzuTNNJpqdDNey-12" value="" style="shape=image;verticalLabelPosition=bottom;labelBackgroundColor=default;verticalAlign=top;aspect=fixed;imageAspect=0;image=data:image/png,iVBORw0KGgoAAAANSUhEUgAAAMgAAADICAYAAACtWK6eAAAAAXNSR0IArs4c6QAAE9dJREFUeF7tnXuQHNV1xr/bM6snTwnDimAgshBop6dnQWCeVREPl0FFjEgKYsBlKqlAIe30AC6weUQVisRGZRuDtkcSD1fiVGwENsSFcRAJNggHUARCq+nuQbZRwsYUSAoRAr3F7vRJeqWtYLG72p2+t/vO1em/tkr3fuec756fume6+45ACx92uWcOWW3tVhRNI0HTAKsdoGkCNI32/T21hctrpdQ/BsRGgDYC2BT/LQRtjAibhCU2Rn3WmjeXFja1UkGDuYpWSnrmjWuOmTB+4hwSjcsponkQ4shWyv9QzlUIrCaIpxHh+bBaXNMqXmgPSMct9c5cf+NCEuJCgP64VYzlPEdygN4CrBUQWJm3+l9c9+DpH+rql7aAFMr1iwQaZQhcqat5nJcEBwjvCqD68a5tS37zdxdsl6AoVUI7QOxycKYAlUngeqmVspjeDhDWE6har5aW6pSoNoCUutbNbFi5LgBlgCydTOJcUnXg30HRkrDa+cNUow4TLHNATr7n7QmHb9l+Nw2AgaN0MIVz0MKBfyVY1bpnP5NlNpkCUnDrHQKN+JT6R1mawLH1dUAQ7gyqzqKsMswMEPvm4HJEeCS+b5FV8Ry3RRwQ+Puw2/mLLLLNBBDbDSoALc6iYI7Zqg7QK6FXuiDt7FMHxK4ED4Lo5rQL5XhGOPB+I5cvrX+wI75jn8qRKiC2G/yMb/alsq5GByGyLqhX7VfSKDI1QIqu/wgBN6RRFMcw3wGrj47zHyr9t+pKUwGkUKldL0j8QHUxrH9IOfBB6DnKH0ZVDkhHV+1iyxK/OKSWjotNyQHxTOgVv6QymFJAnMqbdkT9gcoCWPtQd0B8K/SKd6tyQRkgzk21Y6M28XMAZ6lKnnXZgQEHiG4JqyUltw2UAVJ0/acJUHr64/ZgBwYdINC1da+0XLYjSgApun6ZAE92sqzHDgzvgKjtwYSzN3in7JXpknRAZrhvHTEBu1cDOE1moqzFDhzcAXFb6BXvP/i40Y+QDojtBncB9M3RpyBlZPxG2kpB0eqIRG/OQm9/I9/bqu9BS3EkRZH4iezJW3ZNF1Y0HRGmE+j0/1uPOQI4OcU0QKDeXB/Olnl/RCog9oLgs8hRfPZQ/gCiAN4jokeBaGVYPX1lmgvBsUbnQMeCnk6Rs+YIiK8AmD26WclGEXBv3XP+OpnK/8+WCkjR9RcR8A1ZyQ2lMwhGI9/2cJrP5Kis6VDQLlb8G4lwYwqgfECN3Nn1pYUNMnyVBkhH17qCZVnx2WOyjMSG0fhRI5e/ncFQ6LBi6YLr/5UA/kZpGKLFYbV0i4wY0gCxy7VlEOImGUkNqSHE0rC7GL+Sy0eLO2BXAhdE3QrL6LciOttfUlqbNIYUQGbfuGbS3vHjegF8JmlCw1xWfSXwnB+p0GbNbBwo3FqfIfobb6mKTsDCuuf8bVJ9KYDY7ro/AaynkiYzJBwWrgsWO4+p0GbNbB3Y/6XO7xRl8VLoOXOSaksCJFgK0PykyRw4nwQW1budO2Xrsp4+Dtjl4M8g6HEVGTWi/pPXLznjv5JoSwLEj0+VM5Ik8qm5Ar86ZsqWi1fec2G/VF0W084Bu+x3Q8CVnxgtCL3SsiS6iQEpVvzZRJC+16ogzA2qzookxfHc1nDgtK7VU/Ni4r9BYJbMjAXws8BzrkiiKQOQhUS4N0kSB84VwPLAc66VqflJrWLFv4JAHYJQjIDZAmKm3FhiG0CvkcAaixCiH88Gy5ytcmOYpVZwa18VEP8guapdoeckuu2QGBDb9VcBOEdqYUKcH3YXX5WquV/Mdv2fApinQntYzXhbzRwtrC8uKfkiI9VaFAazXf8JAFfLDEGCLqt3l55rVjMRIB331MdZWxpyn54UeCzodq5rtqDh5tk3Bw4ieinb3RtpWeiVFsiuzRS9Ypd/LlmQ+x8j0X1htXRXsx4lAmRW19qTclY+vv8h7RDAnweeI/X99f1PGH8kLckkQgQvrDqVJBImz7Vd/x0AJ0irMeGmc4kAcdzaORFEfIkl69h7eH7H0aseOG+3LMFYp+D6zwrgMpmaibSocSE/YDm0g7br/xjAVYn8/cRkATwXeE7Ta58IkGLZn0cC8TW9pIP+KfRKfypJbECmWPZvJYHvydRMrEXY0Cb6z+vxzng/sZZhAoVK7S8FiUclllULPaezWb1EgNhubT4gpP2eg6DozqDaKW2j4o4F9XYr10htF76xLQLdH3ql28Y2x/zR8SPyVi7XI7HSzaHntDerlwiQQtm/VwgsbDb4p+ZRND+sdj4kS69QqV0qSGh5L0UALwSec7GsWk3R6byl56j+Rk7qV+Lh1GIO94ioGY8SASJ7t0SK6Jr6kpK0xw6K5XV3kLDua8YY9XPow9ArHa0+TutFsF0/BkTab8Xk+qITag91vtuME4kAscu1ZyDE5c0EHmpO0u+sD9S0K8FyEH1ZVn6ydQRhVlB1fi1bt9X17ErQA6KmPzccWL8QODPodt5oxpdkgLj+i/G7x80EHnKO5G93bNePf8ZL+j0VWfVSPndK/QE5b77JykkHHVujvjIbEPUv5iTpp1T2lk2SYFZzGZDhnJd8BimUaxcJIX6Z1UKPFJeAFXXPmatjblnnxICkBMj+7U83Z73gQ8cX3wm94tf1zC3brBiQlACJwxQq/n2CcEe2S/6p6JstonP9aultzfLSIh0GJEVA4lC26/vxTXUtVj/ea1nQDfXu0vd1yUe3PBiQlAHR6VJL9bsuujV7M/kwICkDEofrqNRPzFFjFQHHN7NocubI3ztWTl56qTAgGQAyGNJ21WwwMXKL0ctk5b5WX2y/rlcr6pkNA5IhIAOfSSrBlYiiEiAcCDgAPie5VXZAYC0geqgR9eQm4kn/u6WdkmMYK8eAZAyIsZ1lSGEMCANiSCurKYMBYUDUdJYhqgwIA2JIK6spgwFhQNR0liGqDAgDYkgrqymDAWFA1HSWIaoMCANiSCurKYMBYUDUdJYhqgwIA2JIK6spgwFR4yursgNDO5DgTVW93knnBWYHVDjAgKhwlTWNcYABMWYpuRAVDjAgKlxlTWMcYECMWUouRIUDDIgKV1nTGAcYEGOWkgtR4QADosJV1jTGAQbEmKXkQlQ4wICocJU1jXGAATFmKbkQFQ4wICpcZU1jHGBAjFlKLkSFAwyICldZ0xgHGBBjlpILUeEAA6LCVdY0xgEGxJil5EJUOMCAqHCVNY1xgAExZim5EBUOmALI7i+EaBz3kQqLWLOFHJj4vI3c5iPlZcyAyPOSlbJ3gAEZZg34DJJ9c+qQAQPCgOjQh9rmwIAwINo2pw6JMSAMiA59qG0ODAgDom1z6pAYA8KA6NCH2ubAgDAg2janDokxIAyIDn2obQ4MSMaA5N+ZAuujSbA+nATrg8NgbZsotVmorYHomO1oTNmB6KhdaPzBVtC4fqkxTBZjQDIEZMJLsxADkuYRHbkLH5d+h/4Tt6QZtmVjMSAZAGJtnYzYePFxPrPG6Zu5CXs//x+ZxW+VwAxIyoCIvhwmP3GOFv3Rd+pG7D3rP7XIRdckGJCUAZn4Qgdy7x2tTT/wM2cjLwUDkiIgbeuPx/g3/lAbOOJEosP3YPcXfdCEPq3y0iUZBiQlQMTucZj81Fm6rPvv5dHX8S72ntGrZW5ZJ8WApARIfFkVX17peDTaP8LuS0IdU8s8JwYkJUDG1U/AuJ6TMl/woRKI74vsvHq1lrllnRQDkhIgE14+FfneY7Je72Hj7/rSWkRH7NY2v6wSY0DSAuSVmci//Zms1vmgcXdd8cbAB3Y+ft8BBiQlQNp+Mw3jX5+uZf/R+H7svIovsYZaHAYkJUBym47ExF/YWgLSOH4rdl/0ppa5ZZ0UA5ISIGJPGyY/+fms13vI+Pw17/DLwoCkBEgcJv4WK/42S6cjvkG4+1If0WH8+YMvscbQmaoewZj089MHHm3X5dh7zgb0zdisSzra5cFnkBTPIHEonS61+k9+H3su+K12TalTQgxIyoAMQLJzPCY95yB+/CSrI360JP7swcfIDjAgGQAyGHL8a59D22/bU+3RxrHbsHf224im7kg1bqsGY0AyBCQOnX9nKqytkxC/RGV9OBnW9glSe4nyDURTdiKasgONKTvROPF/QPlIagyTxRiQjAExublMqI0BYUBM6GNlNTAgDIiy5jJBmAFhQEzoY2U1MCAMiLLmMkGYAWFATOhjZTUwIAyIsuYyQZgBYUBM6GNlNTAgDIiy5jJBmAFhQEzoY2U1MCDKrGVhdmAIB0z5nXReXHZAiQMMiBJbWdQUBxgQU1aS61DiAAOixFYWNcUBBsSUleQ6lDjAgCixlUVNcYABMWUluQ4lDjAgSmxlUVMcYEBMWUmuQ4kDDIgSW1nUFAcYEFNWkutQ4gADosRWFjXFAQbElJXkOpQ4wIAosZVFTXGAATFlJbkOJQ4wIEpsZVFTHGBATFlJrkOJAwyIEltZ1BQHGBBTVpLrUOKAMYAkKESJsSyaiQO2678IYI604An6SiRJQqdCktTBc/VyQKe+YkD06g3OBgADMlwbJDgVcmeZ4wADwoCY080KKmFAGBAFbWWOJAPCgJjTzQoqYUAYEAVtZY4kA8KAmNPNCiphQBgQBW1ljiQDwoBo2c3Fin8FgToEoRgBswWsdoBeI4E1FiFEP54NljlbVSfPgDAgqntszPq26/8UwLwRJxLWU44W1heXnhpzgDFMYEAYkDG0i9qh9s2Bg4heAnDU6CPRstArLRj9+LGNZEAYkLF1jKLRM9y3jpiA3R81JU/wwqpTaWruQSYxIAyIir4as2bB9Z8VwGVjnjg4QdGjQQwIA9J0T8qaWCz7t5LA9xLpETa0if7zerwz3k+kc8BkBoQBkdlPY9bqWFBvt3KNjWOeOOQEuj/0SrfJ0dqnwoAwIDL7acxahUrtUkFixZgnDjFBAC8EnnOxDK1BDQaEAZHZT2PWKpbX3UHCum/ME4c+g3wYeqWj5WjxGWRkHxV96JO5eCZo2ZVgOYi+LKsWQZgVVJ1fy9Iz5wxSrj0DIS6XZQwJuqzeXXpOlh7rDO2A7fo/BHCdLH8onzul/kBhgyw9nfJL9Mpt0fUfIeAGWcZQRNfUl5Qel6XHOsMAUglcEHVL8ueD0HOmStIakLE1yi8RIIWyf68QWCjNHIrmh9XOh6TpsdCQDhTKtYuEEL+UYQ8BK+qeM1eG1qCGTvklAsR2a/MBsVSWOYKiO4Nq5yJZeqwztAPOTbVjozaxWY4/4juhV/y6HK19KjrllwiQYtmfRwLxQ25yDiEeD7uL18gRY5WRHChU/PsE4Y6ELm22iM71q6W3E+p8arou+SUCxHFr50QQqySas2fH9i1H9/7gwj0SNVlqGAds1/cBFJs1iATdUO8ufb/Z+Qebp0N+iQCZ1bX2pJyV7z1YoWP5d0G4Oqg6PxnLHB7bnANJLmUEsDzwnGubizy6WTrklwiQjnvq46wtjb2jK3e0o8Q/hl7xq6MdzeOSOdBRqZ+Yo8YqAo4fvZK4LfSK949+fPMjs84vESBx2bZbexkQ5zdvwRAzhTg/7C6+KlWTxUZ0wHaDpQDNH9kmepms3Nfqi+3X07Yzq/xkAHI7IL4t07A0Tt8y8zVFy64EVyKKSoBwIOAAOA4CawHRQ42oJzcRT/rfLe3Mqt4s8ksMSLHsF0kg/rAn9RCEuUHVkfJAndTEWOyQciAxIPsus4I6QB2SnVsTbcqd/+ZPCh9L1mU5dmDUDsgC5NsA3T7qqKMcSMDTdc8ZeSOBUWrxMHagGQekAFLs8ueShX9uJoGDz6G7Q6/0rYOP4xHsgHwHpABy7q2vTtzef1h8N/U4+SkC/JSvCldZczQOSAFk4HNIubYMQtw0mqBNjRFifthd5AcZmzKPJzXrgDRAOrrWFSzLWg1gcrPJHHQe0UONfNu96x/skPQ+9UEj8oBD3AFpgMQ+Fl1/EQHfUOmpAN4jokcb+baHGRSVTrN27IBUQOwFwWeRo/gsMk21vYOgEGhVvdr5L6rjsf6h6YBUQAY+i7jBXQB9M2U7txHwikXRryISvTkLvf2NfO+bSwubUs6DwxnmgHRA9m9nGZ9FTjPMKy5nWAfEtix2gU9jQaQDsv+zSJkAL40COIaGDqS0C3walSsBZB8ktRUEcWkaRXAMXR1Quwt8GlWrA+RWfzr14XkITE+jEI6hqQMKd4FPo2JlgOy/1LqEgOfTKIRjaOxAC28IqBSQAUgq/o1EeFjj5ePUVDugaBd41WnH+soBiYMUXH+RUHwDMQ2zOEYSB+TvAp8km9HOTQWQOBnb9X8M4KrRJsbjzHJAxS7waTiUGiD7IXkCwNVpFMYxdHOApO8Cn0aFqQKyD5JaBRCL0yiOY+jlgOxd4NOoLnVABj6TSPwBlzRM4hhyHJC9C7ycrEZWyQSQOCWnq3ZGlBOPgXBqGoVyjMwdkL4LfBoVZQbIACRu7QSCeJQAvuOexmpnGEPFLvBplJMpIHGBHVfVx+XaGwsJKI/tx+zTsIdjyHNA/i7w8nIbXilzQAZTK3Wtm9mwcl0YAIWsNIrnGKk5oGwXeNUVaAPIYKF2OThTgMokcL3q4lk/HQdU7wKvsgrtABkstlCuXyTQKEPgSpUGsLZaB1p9G1ltARlctmLFn40IX4CFS4gg9fe41bYGqwPp7QKvym3tAflk4fbNwXGiQXMjgbkC+CKAw1UZw7pJHMhuF/gkWQ81t6UAObAAu9wzh6y2diuKppGgaYDVDtA0AZpG+/6W+uurss03SG+HTrvAy/T1fwElqbpfZsoicwAAAABJRU5ErkJggg==;" vertex="1" parent="OGXLcFdzuTNNJpqdDNey-14">
          <mxGeometry x="20" width="40" height="40" as="geometry" />
        </mxCell>
        <mxCell id="OGXLcFdzuTNNJpqdDNey-13" value="税务局服务器" style="text;html=1;align=center;verticalAlign=middle;whiteSpace=wrap;rounded=0;" vertex="1" parent="OGXLcFdzuTNNJpqdDNey-14">
          <mxGeometry y="40" width="80" height="30" as="geometry" />
        </mxCell>
        <mxCell id="OGXLcFdzuTNNJpqdDNey-15" value="" style="shape=flexArrow;endArrow=classic;html=1;rounded=0;" edge="1" parent="1">
          <mxGeometry width="50" height="50" relative="1" as="geometry">
            <mxPoint x="50" y="255.11" as="sourcePoint" />
            <mxPoint x="210" y="255.11" as="targetPoint" />
          </mxGeometry>
        </mxCell>
        <mxCell id="OGXLcFdzuTNNJpqdDNey-16" value="za-inputtax-web.prd.za.outer" style="text;html=1;align=center;verticalAlign=middle;whiteSpace=wrap;rounded=0;" vertex="1" parent="1">
          <mxGeometry x="-110" y="370" width="180" height="30" as="geometry" />
        </mxCell>
        <mxCell id="OGXLcFdzuTNNJpqdDNey-17" value="172.20.50.127" style="text;whiteSpace=wrap;" vertex="1" parent="1">
          <mxGeometry x="220" y="301" width="110" height="40" as="geometry" />
        </mxCell>
        <mxCell id="OGXLcFdzuTNNJpqdDNey-19" value="" style="endArrow=classic;html=1;rounded=0;exitX=0.5;exitY=1;exitDx=0;exitDy=0;entryX=0.467;entryY=-0.077;entryDx=0;entryDy=0;entryPerimeter=0;dashed=1;" edge="1" parent="1" source="OGXLcFdzuTNNJpqdDNey-6" target="OGXLcFdzuTNNJpqdDNey-16">
          <mxGeometry width="50" height="50" relative="1" as="geometry">
            <mxPoint x="30" y="351" as="sourcePoint" />
            <mxPoint x="80" y="301" as="targetPoint" />
          </mxGeometry>
        </mxCell>
        <mxCell id="OGXLcFdzuTNNJpqdDNey-23" value="" style="group" vertex="1" connectable="0" parent="1">
          <mxGeometry x="80" y="320" width="55" height="60" as="geometry" />
        </mxCell>
        <mxCell id="OGXLcFdzuTNNJpqdDNey-21" value="" style="shape=image;verticalLabelPosition=bottom;labelBackgroundColor=default;verticalAlign=top;aspect=fixed;imageAspect=0;image=data:image/png,iVBORw0KGgoAAAANSUhEUgAAAMgAAADICAYAAACtWK6eAAAAAXNSR0IArs4c6QAAIABJREFUeF7tXQuYHFWVPqe6k+EhaBSmJ1FegigsIogoEFHAMJ2AiIgEFUEIU1WTYMj0hIcgq6OLigLTEyLJ1O0mxMVFk6jrA8j0hF1WENH1gbgLiK6KAsn0RAggr0x319k+k5oYJtNd99ajpzpT9/vyod+ce++559bfdevcc/6DELfYArEFaloAY9vEFogtUNsCMUDipyO2QB0LxACJH4/YAjFA4mcgtoA3C8RvEG92i3tNEQvEAJkiGx0v05sFYoB4s1vca4pYIAbIFNnoeJneLBADxJvd4l5TxAIxQKbIRsfL9GaBGCDe7Bb3miIWiAEyRTY6XqY3C8QA8Wa3uNcUsUAMkCmy0fEyvVkgBog3u8W9pogFYoBMkY2Ol+nNAjFAvNkt7jVFLBADZIpsdLxMbxaIAeLNbjV7GYaxv23bByDiPgAwQ9O019m2PQMRZ/D/J6LXaZq2GwC8NP6fbdt/1zTtKQB43LbtJ3K53O8DVi8eTtECMUAUDcbiuq4fqmnakUT0ZgDgfwc5/z3Ew3BuXTYT0Z8R8WEA+Jmmab/o7+9/0K1T/PdgLBADRMKOF1988QHJZPIUIjoFAE4GgDdKdAtT5GUGCwD8nIjuf+WVV+657bbbXgxzwqk6dgyQGjtvmuaZtm2fgYgfAIADm+ABGQCAO0ul0ppbb711cxPo2xQqxgBxtumcc85JzJgxg8HwMQA4CwBe1xQ7uLOSBAD/DQDf539CiN816ToiofZUBwh2dHS8N5FIfIyIPgoArZHYlWCV+AURLX/22WfXrFu3biTYoXf90aYkQHp6epKbNm06n4iuAIC37frbPLrCIiJaiHhzf3//8BRZs+9lTimAZDKZ3V944QUDEZcCwH6+rdecA5SI6DtEdFM+n+cP/bjVscCUAMiFF174uunTpy8GgEsBgO8n4rbNAj9GxMssy/plbJCJLbBLA6Snp0fbtGnTJUT0xSb+6A792eU3CgB8Nr6Y3NnUuyxAOjs7Z9u23Q8AR4T+hO06E6yybfvqfD5f3HWW5G8luxxAOjs7WyuVyvWIeIE/0/jvjYh3ENFdiPiMbdtPJxKJp0ul0jMtLS1Pr1ix4oWLLrpoX03TXouIrwWA7f91/je7md9evds4FgD296+N9AjPAcASIcQ3pHvswoK7FEB0XV+EiNcDwB4R2bOipmnH9ff3P+5Hn0suueQN5XL5PUR0bBVw70ZEBs2+fsaU6DuQTCaNFStWPCEhu8uK7BIA4beGbdurAOD0EHeKgwu/BwB3Vx/OmwFgT8m5/pxIJI5ZuXLlFkl5KTHTNK8hon+REvYu9HcAuFIIsdL7EM3ds+kBYhgGg+LWkH5RXySiH1bvSr6dy+X4v6PNmfMOha3/iRDiRAX5mqILFy58c6VSyTsxYUEM6TpGNdzmvnK5vOCWW275P1fhXUygaQFiGMYeiNhHRHrAe8Jn8B8i4rpnnnmmUOv22cMv+NeEEFd61dW53PwMEX0WADhcvtHtJUT8hGVZP2j0xJM5X1MCZNGiRfuVy+W7AvZQDQHAV0dGRvpXr179isymGIbxXQD4iIwsy2iadnJ/f/9/ycqPyZmm+T4iygHAoap9Q5D/khDimhDGjeSQTQeQzs7Od9u2zceboD5S/woAvOlCdYfOP//8PXffffdfKzy4w5qmvV021OPiiy9+fSKRWAYAn1TVbQL5nyPip23bPgwRvwoAM32M+cNkMnkee+J8jNEUXZsKIIZhnAMA3wSA6QFY94/Vo8p1s2bNWt3T01P2Op5pmocT0S8UPGdrqhG2HDFct5mmOZeI2NXqN4DyKUT8jGVZbLfR5hxPrySiy6tvzd3ddKnx999pmjbPr4fO49wN69Y0ADEM40sAcHVAlmHPzNcCGgtM0/w4Ed0uOx4inm1ZFnvEdmoXXnjhbi0tLTcS0SLZ8WrJIeIXieirQgj2wO3UOjo63qRpGr9NPuFxrs22bc/J5/O/9dg/8t0iDxAnwPBbiHhmANZcDwCdQgg+VgXaDMPgW3tTctC/27b9jnw+/+cd5XVdPwoR1wLAWyTHqSX23UqlsvSWW275i8w4HR0dp2iaxm+rN8nIj5Nh9/UcIQQfNXe5FmmA8K/p9OnTCwDwPp+WLxLRpblcjh++UJqjK0fHvkNmAk6VzeVy7x2TNQyD3478lvTTHuE3Ty6X+7HqIIZh8G3+1z1+7zDZBB+37ledN+rykQaIYRgMjnY/RuRkoWnTpl3diA/KhQsXvrVSqTChgtS5nogu4XCU6hvj36oXkNvB4mG9TyPiNZZl8VvMV9N1/SxEZIeFatTzK7Ztn57P5//TlwIR6xxZgOi6ficinubDXs9omna2F7eqjzn5A7ijSurALlmZxt8GnCIreys/0Zh9IyMjX1i9evWzMhPKyDiRCXwZeYaM/DiZDwoh7vTQL5JdIgkQ1fuFCSz7oG3bH8rn809OhtUD0F9G7d9omnZ+f3///8oIe5HRdf0qRPyyal9EPMGyrAdU+0VRPlIA4fyNjRs3sjfoXB/Guq2lpUVfvnz5Vh9j+Oq6YMGCvZLJJHt2wmBD4bzyL86aNeurftzTsgs0TfMjRPQtRdf6Fk3T3rkruIAjBRBd129ExG7ZzRsnx6mkXblcboXH/oF2M03zHc79yLQAB/5VIpE4b+XKlY8FOKbrUIZhvAcA+FtJ5bvkDy0tLe9avnz5864TRFggMgDRdf18RPxXj7ZiQoKzovZaNwzDqN5YWx7XNL5boHc3qjoxeV4ikWDuLWmSCyLakMvlfDlZVPUMWj4SAKl+kB9b/SBnLicvbahSqZwY1UhTwzDu8+mhegARP2VZ1h+8GCfIPuwKJqLvI+JJsuMSUX8ul1soKx81uUkHiHOby5dMXmKrhiuVyuyogkP1hn3cw8EBk1cLIbJRe2h0XR9ExFNl9SIiI5fLyXr2ZIdtiNykAoRvyV988cWfVhkAj/Kw2qcSicT7Vq5c+ScPfcPugoZhcDITh6YrN75ETCQSn4zqR64TpMlvxqMlF/dKIpE4qtHfTpK61RWbVICYpik85nNsTCQSJ0YRHM7Ds8ZnduNiIQTfake2GYbBH+z84yYbFvOQEMLLD+Gk2mDSANLZ2XmSbdv3eFj9U86xSirOyMP4nrsYhnEwE0gDwFs9D7Kt45ZEInFw0Gm6PnXaqTvXQnF4gFOSY/cJITKSspEQmxSALF68eO+tW7cyqbJqTsILiUTiXVF8VRuGwaEi7ArlmKYg2s1CiE8HMVCYYzgOFo7BknVnp4UQg2HqFOTYkwIQwzBWA8CnFBdC1XuF03O5HEfkRqrpuv4xx0Ut+5DI6F9BxCMty3pERngyZQzDuMQJdJRRY3OpVPqnZinR0HCA6LqeRkT2pyu1Kjo+n8vlmCExUs00zS8Q0edCUurHQghpl2pIOkgNa5rmGiKaLyPMN/NVFkevOSgyUwQm01CAOBy5jwJAm+IKuM4F1+yIVDMMgy82z/egFN8u7y3Tj4jOyOVyKgwqMsMGLqOafqxp2nubITy+oQDRdf0mRGQSaZX2aDKZfHcjwtVllXKAzimsyjxcfLvMLtxq9apfSSYo/VEIEUbtQ9nlSst1dHQcpmkar0sm3P+3Qgip3BlpBUIQbBhAOjs7D7Rtm3mVEgrreC6RSLwzSu5cJ+SCE5IOUFjHmOiNs2bNuqKnp8c2DIOPGJwH4to4dzyXy93gKhgBAV3X5yMiu7ll2qKok9I1DCCGYXA2H5MuSDcnxMJrfJb0PLKCuq7/EyKya1r11n+rs5ZXPTimaT5ARMdJzP98qVQ6pFk+bE3T/B4RyRyJI+/ObghADMN4ZzX5hl+9Ku1eIcT7VTqEKWua5vFExBmOeynOswkR51mW9dD4fp2dnUdX81akcrkRMWdZFgc/Rr459yNc471FQtmVQgjfBBUS83gSaRRA2E9+goKGI5qmvTUqoRa6rs9DxH+X3PAdl/mrUqk0r94vv2EYfMyS8egQIh7RDG5fNoCCd8/WNO3gqOz1+Gc0dIB44LEFRPxny7KuVQBUaKIOF9e3mRhRcZI1W7ZsucCtcOaCBQtmJZNJjieT+bVtGrfv4sWLW7Zu3cpvEdfSDYi4wrIsvkuJXAsdINVfX2b0e7fCyh8TQkjnHCiMqyxqmubFRMS52artMiHEjbKdqmkjPdXc9M/LyHM13lwux5SnkW+maX6UiNZJKrpvNXLgb5KyDRMLFSAOTejPVVZTdYPOribZcBDcpDan1giXOVBtuhBCCVTMdAgAnO8xS2KyvwghwkjllZhaXcQwDP7Gco36RcSvWJYVFDGguqI1eoQKEF3Xb0fEjytoyxS5suRrCsOqiRqGwVVwld2qiLjAsiwuxaDcTNO8wKEalekb+WjfsUU4Oe0yb7znyuXyfqtWreKaJJFpoQHEMAwORNyoslJN01KyxM4q46rImqa5mEskq/RhWUT8sN/SANXvNeb4fZfE3H8VQni5h5EYOngRwzA4ekLm2DypacUTrTxMgPBHtnTCUBTcmE5ePFNwqtjl74iYDiIfvqOj4zhN06Tocojoglwud1vwj3PwI+q6fiEiyrxZnxRC8Ec9c4VFoqk8CNIKOx4Mfnu8XrITaZr25sl09RmG8eFq0Uw+Cqh4qzYT0cm5XO5hyXW6iikE/f3ecWZE5mGqtTgu/rNx40bO33H9xvJaQ8XVsB4FQgGIrusLEPEWWZ34jsGyLOlCNLLjysrpuj4HETmMPinbh4+Ptm2/dzwBtUL/CUWr322HIiIfSVyBiogfsizrR37nbER/haPrrVVy8QWN0ElmjlAAYprmvUSkUpPvOCGEkrdLZnEyMlUCghOqBASqpMvscWJG88BZ4lln2bcIIv7MsqzjZdY52TKLFi16TblclvkA//vIyEirbJWvsNcVOECcqkjsz5YamwtEWpbll73dk52c2KqfAADXJJdtjzjHgGHZDqpynZ2dR9i2/T8y/aqxYe+3LOteGdnJlpFND3BqITKb46Q3qYdYRUvV41XV/3+eEEK6+IyKLvVknahcLlegkpvy60QiMacRueIK5N13CiE+GJRdwhzHqUPyH25zVGvB35XL5ZRTCdzG9fL3wAFiGAYn96gsbgsRdYZZu2O8YS655JI3lEolJqp7s4LRfueQRTyj0MezqJPjztQ6rs2pexgaibWrAvICTIfEx1K3Qj0VTdNmTbbLn5cVKECcrDJPhR25spKmaZ1h/zo7t9b84HGEsWz7XalUel+jw82rzoOfIOJsCSVvF0KcJyE36SIKpfTmCyFkw1RCW1egANF1/exqxOl3fGjLlaA+lcvlOKw88OYAmPWbqzD4H0ql0uxGg4P1U8nfr1QqB8qWXFNYe+Cipmm+hYg4iLFui0qSWKAA8chWspOhOLqTDVSr+KSbcWv9vXpsuRsAPqDQn2unvycsb5WMHoZhcMUqV8K1KEfEjl+nYRgca1fX+xYVF3bQAGH3Z1D503+ybfu8fD7PH9K+m2EYfC+j4l9/zrbt4/P5PN9JTFpTiYgtlUqtk/GmUzWOTHxWuVzeOwpxWYEBxKGi3KxqLAn5LwshpENWJhrPMIwrqkQCXO5Ytr1CRB+IQlQxK1zNX+cjiQzF55eEENfILlJGbmbXhsMqYM9HhLch0FsJkFkjnwaE3wHhY0j046G+tPKxulpzhC9mJzzqIuLCIOotyqzPTSZIgHCoBmfdhdEetW3bzOfzUl6dHRWQ+bUar3BUXu9jeim4zh8WQhwRxAa0Li18GO3RSl/MdeV2q893NmvtJK7ZfH27dJkG0zQ7iYhzYcaoS7ksNv8gKqULBLHeWmMEBhDTNK8nostCVRZxdTKZvOzmm29+Wmaeaq3AtwMA39DL0NCMDklEF+VyOWZ+jFSrFgfleotvdFNKCOF5T1OXFQ6CCpyLQPMJ0DWHYwJduDzcWkBYU+xNS3N5cTUu27anV+8+OJo5Us2zMcevQtIl+UcAYPICP3FXzyDiFZZl1Y31crirOFnnIFmLR8VzMpG+hmFcCgDLXNbyhBMNK7vkUbm2rsI8G4jpevhtwclb/hviL8imtUkN1mzsTT/hf8DJGSEwgBiGIRNVuk4IMd/hhOJagn6InrnyUkctEgPTNAeIKK1g1kiTRTu1VPj4UvMtwjXhc7kcA8m17dM1MDOhwblAo6AIM57reUBaSxVcO7wsvcFVsYgJBAIQ5yjDVV3rth35dR2yAs4R8FXDDhFv4HF3dAkrMGqM6dsU4RqmaZ5KRLWY0f+cTCaPdGOgbOseOBlIm08wyqMrm47gtrVSf0eA+wBoLSVwbfGGdGixbFLKSAoFAhDTNM/k2nVuc05EOOB8qHF6655u/ev8/SkA+HS1QMv3PbCoPPTyyy/Pvu222170MX/Dujog4ePlfjtM+kCpVDqzlov3TZmB148AzEcYfVuc3DBla080DIBrbbDXbs7OVXa8NFL/QABiGAYXRel1UzyRSLxtotoeHR0dByHibZJhFTWnQcQCER2r8Mv4hMP7yxeCTdWYyK5KdMBUQc/19/fzZeJOrbVr/fEI2nzQYD6Qe7LSpBgAYQPYuLZUKa99ZvlpkSsZHQhATNO8mYjc2PFGZs2atTvz0k60ET09PdrGjRsZaF+S5Ijyu58v2rZ97GRfBPpdxPj+s4wf7WG/pmW+TTQfAeYFPX6I4z2BCGugYq8dWjYvMt6sQABS79JnB4NK1ajjMmaIyLULTwlxM5ilkPPIm+6jsZZN9u3ecLRGNh+h+O5C2nOnYmMCug8B+gGQiSU6VdznKvMAwI8Ice0+ez+79pGe+ew6nrQWFEBkbnqVIk4dlnAugeyax+zBelcIIa730C9aXXp6tNRzx/Px6VxA4IvaEBqWAKkfMdE/dOOcV1W7auvecAGRzUAJxwtG8Ae+UwHQ1hazp0olkAVtgKAA4uriJaKrc7ncV1QW4KRp8k0r81QF1dYIIT4W1GCTMc4O4R/8tjgsJB1+Wb0i6S9m067cAq3dA+/QSOskIAZLKI0AvqMRrPES1uJHId8AcZKPXCkj/YRvmKZ5uG3bwu9HvGOoTdUU276Wlpb+5cuXR+6jsN5mKoZ/eH0ubtGg3L8pezoDRLm1ZgY6EZCBElZxHE9hLcoLcTr4BsiiRYv2K5fLruQFiHisZVmejD62OIe3ir1lXKPbb2MCgW9omnZdf38/u4kj2QII/5BZ18NAYBX70stlhGVkUksK7yGkRYh4gYy8BxlPYS2q8/gGiGEYzJjnGhKOiEdNVCNDVeGFCxfOqFQq13GQq2rfOvKf23PPPW/IZrMvBzimr6H2WbL+rRpqSxBHqwEHE/6xs0a3E8LNw73pELmQCVOZwS5+qxDQob6MUqszh7WA/fXh3rmBF1vyDZCOjo5jNE1zfTMQ0RFBEaw5YRf81griTTJmdg6AzJbL5ZsmOw+htWt9D2rapUAwI4QH6s9I2D/0umm90HNyOYTxaw45MzNwok24GFCt0pisjgQwoGmJpeOdCbL9J5LzDRBd19+PiP8locRh1Y/j30nIuYoYhsFBe1IxR66D7SzAOfWcC71KCMGUQA1tbV2DlxDS1wOflOD7qNFNQ71zuYTcpLYDL7x1t5dnzOwmgoWI6EbgoKrrw6gl5gcFkiAAwtWX7nJbRSKRODiIYpxOKbQQjwSvWsnDiHijV8Z2N5uM/3tqyfoPgab9QLVfTXmEIbJxBSapt3hDOpKhNKnMwBxAXAIEQVIXPUx24gPDy+YU/drSN0BkU0KDIhVQYAr3a5sd+7OXjn/VOeLX1WPndeJU9+DdQKSSMz/hVBxyY1cwO7zs1FDIL7yur16/1y++a+/p0xL8Vvk0ALzB7xxEcPlwX1q5hMX4eX0DRJbJpFwuv3HVqlVK5RDGK6tAGcNd+ddjLFPNr7137H87EfUFndyT6hroAMScD0XZZX1TS0up96/XfXCLj3EmvWtb9+BpRNAN4OPHgui3xb65vl3NvgFSZajgcHXXXyq/hAIdHR1Hapq2U6XYGrv5bDKZPKxcLnO5Zs5n5wu1oNvjXOdc07Rv9/f3+yZtS3UVsoDQ5UFJrtl+YzGbbgoSa5X1zVp6zz4VKnUDEdtFOit0bI6Ebb9t47J5j6nMGfgbRPabYGRkZMbq1auf9aqsLP0Nj09E5+7I1MjRwpqmcb0SmWqyXlTk8gdrEPHblmVJ52TvOFGqa+B2kK7GhSUC6qOt5d7NK05vukhkLwZuzQyepZHdTYjvle6PeGaxt/2H0vITCPp+g8gSLSeTyb3cknlqLcQwDK5dx1G+Mm00a3EiQUfXJQ5QwrpbeBAR11QqlX/L5/OcRy7VUpnBewDoJBfhB5Cgt9HhFlILaJDQGzL/8cZpVGKgdLtNSWR/YbhvHocqeW6+AeKQQPNxo26zbXs/lQdmbDDZi0hHvphIJA5zoy9dvHjx3lu3buVaiBzjFcZ3ypj6nBb8nUQicfuKFSvq/tLLACSIDXfbp2b5eypTkIj/iwBAZGOxvFYOkmHh22FTPyiEuFNlk03TvIjJGkIM+htTh+9U1lXd3bdNBOAYICq7BtA0AOFlyRA2EJGRy+WUvDSSTB5jlvVVmYjThquer4WKRA9qu7pNmmsafsmyrFcR2cUAUTNlswHkJQkvw/VVYgVmOJRqnZ2dB9q2zR+/Mt8KT5bL5cODCBFxEraY0OziKs1OGKEeo+tHxPMty/rmmDFigEg9FtuFmg0gzGjCJG01m2odQhWiaSI6LZfLMZVloM2pXc6pxO8JdOBtgw0JIbhU9mhrFoAcsviulhcSePxQ3zyZ8KIQzDZmryb5BmF1DcNgbtazXazxP0KII2Us5mQTrpGRBYDvCSHc5pYcamIxXdeZXd10Qrdl3mhS8+1Y+CbqAEldVmjFCqygbcWRdgMA5mH+92I2zc6Ohrdme4NwpuBnXKz0ihBC6rLHMAzmaD1QwuqvaJp2SKPyORYsWLBXMpnk/IZzAOD9Evq5iWx3KkQZIK2X3X0kVio1L2mL2bRvb6ibocb/vakAIkuunEwm91+xYkVdGkpZCiHHYN1CCM5bb3hzipV+BBGZE8xToJ2maQeN1YaPNEC6Cr9EhGPqGPm6YjZ9VSM3oakA0tnZOdu2bdfQcDdXr2EYTEXKdyoyVWd/I4TwQrAc+D46latOQ8SPEhEfQWRI8L4hhLgw6t8gsy7dsH8lYf+lntEI4LHhbJoT5xrWmgogHR0dqWp9QZmQh6uEEJwNOGFTYYivVkJ9d9ABg0HtrmmanwSAT9ZxGf8fM4HsGBmcygzeLRGcd20xm/7noPSUGaeta/1JhJprDklDj1lr1yZSD7zWPdmL4JpiX1o2AmNCcwR2djQMg8kQ3Eoq3yuEmPDsLpvb7qxipRDCjahOZv9DlTEMg71U5wPARQDAv7CcjPUVIcSXJzhTM3Ur38XUazcVs2kOlWlYiyJA9v/MHTO2bp3mWm2YCBYN96VX+jFWYADRdX0dHzFclKlwrL8Q4rnxcrqu345ywXpPj4yMHOIn8NGPwcLqm+oufBMI6laqJaLVw31zGWwNa1EEyMyldx5g20nX8Caw4WPFZWlZb2i4bxBd15cgYp/Ezu1U3rezs/No27a5lodrc0oeuHI1uQ4UMYFUV6EfEOq6TBHgu0PZtNuPUKAriyJAUpk73w6QdK0mAJA4tZidw4VbPbfA3iCGYXDd8V+5aYKIqy3LetWvoGmaDxDRcW59q+XAHnFKjLkGqkmMFSmRtszADQRYnyCPYEOxL+2rXITqoqMIkNauu2YjJtydQkTHbOqbK/XDW8sugQHEIZ/mfI+9XDZhsxCidUzGNM0ziEgqZp+ITsrlcpwgtMu1USYT1D7vsrCfF7NpmR+SwOwTRYDMzAzMtQFdIyeQ7IOG+ua5H8XqWCswgPAchmFwZqHML9wxQohfn3POOYkZM2Yw04lr6WjOs7Ysa8KqqIE9DZM4UGtmcCkCueVQP1rMpg9vpJpRBEhbZoBrKLp+W5TKldf6LakQNEDYBflFtw1ExH+2LOvaqueLz9z9bvKcJFjNqziiVrk1if6RF2ntHjSRqK4tEODJoWx6x8I5oa8rigCRy9/HUjHbPt2vgYIGiNR3CBHdj4j8puHXH+eN121EdEsul+twk2vmv7d2Fc5DhO3RvTXW8nwxm/ZT11HZRFEESGvX+m5E7UaXxRSL2bTbtYOrPQIFiHPM4lvX/d1mRsRlRCTj03+pVCodWKu8mNs8zfL3VGbgTAB0LWPX0Au50Qq40bsolPxeC+Q4GgZA+OaSc8iDal8QQvjKKw5KkTDHSXWv/wCQ5uqStAmP3tzX/pswddlx7CgCJJUpyFyq3l/MpuUJHmoYNHCAcFF4IgpqAzmk+sAdK9g26sFo9Dz7XDE4K1EiV5Z5RLxoqLd9tRf9Zly54bXTSnQ1Mok0oUy8mzONK5kEp4BJ54cQwuNgV/7ilVAhlRl4HAAPqGeDoC5VAweIc8ySqTgls8dcufZmGcFdQSaVKXA8mxuJhKdwk9buwglIcH+k7ISwsdibrln3fSJdpcNMgC4bzs51+05xNUcoAPFQp3wiRTdt2bLlwHXr1k1qjTpXCwYo0Jop3OVWeJMQ7h3uTSvlouy7aO1rtN1e+1hEK91mi9m0K4XPmJm5zjsR/qeb2W2geZuzcwfc5Nz+HhZA3kJE/Bbx05YIIW7yM0Cz9U11F64FGmWCrNeUPVmpTIHz6/NRtYfKd5WkBwuS5cp+Ty0/TZqXrJZtQgEIT6br+k98lEzbPDIysv/q1atfieqmqurF32YAcDkRnewUJv1fRLzWsqztF16tSzd8BG37u+5jJw4uZuf8yV1um0Sqq7A2rJocsjrUlSPKFPvmysTxQVtm4F8JkCOk6zR8tphtD4RwIzSAMI0OEbm6LSdaJSIutSyLS601fVu8eHHLyMjItUTENeATEyxIF0KM/rqnPl04CKaB64NPSB8hFkL6AAAQd0lEQVQd7p0rAaRts7V2D3wVCaUZZRptdEScP9TbzjVZXFsqU3AlCAGAQDxYrExoAOHBDcPgMJK3uq761QKb99xzzwOiVA5NUf/t4rqun8DBmVWS67fU/b1DPHSM0zeVKXCeg9uvn1LiVGv3wNlIyMQakWzJadP3e+prJ7sfh2QTpRCtYm97IBV3QwWIrus6IgrFXWn6GuZOiTjOnORaF5rE+q8TQozmdKcyA3cDoFuNkDuK2fQZEuNuF2l1zytXGS4wWUJYNNwrl9Q0M3Pnu2xI/sJ1coJLgypIGipAnLcI32XI1hLkIpr7NPO9R0dHx3Gapv0bALzZdSP/IXCnEGKU+KE1U/gaAjAVar32cjGbVqYfiuC3CNMGfUTWTqlMgZlzmEGnbkOkU4IqNRc6QHRdvwoRd0oxrbPCs4QQnr5d3AwX9t8Nw2A6UeWzfrXA6XeqBU6ZSghSXes/Dqjd7qor4pxib/t/uMqNE0h1D34IbPvN1fIJNS4KtZ1ybRDBNZKBibVlddEw+RdC+quq/m1dA/dJlT9IQKp4Q3pYVp96cqEDxGEq+aNCWa2nksnk27yWSgjCKKpjOMliHGh4mGpflkfET1mWNVrCeJ+ugZkJRJlKXEr3B1704j5RCTXhKIDpI7ZrfZmgGVZCB4hzzOKzuHSRekRcYVnWJV43tZH9dF2/EBFv9THn74UQr3JkpDKFnwPAu13GfKiYTTPjY6gtKgBJZQY+AYB8dK3bCPFrw73tV7rJyf69IQBxQMKVl1wTo8YUR8QTLMt6QHYhjZZzWBbZFe0nDP/BUqmUHh+pnOoqfBYQuCJW3WYn8dDN17d7qmjlNvbY36MCkNaugVsRcTuPWC397Yp94uab5rmm48quv5EAYUK1O2QVc/LP/0lBvmGihmEwmfVambD+WkqNJY1N9PeZXQPvtBFd8/shQG9NLT2jApBUpsDHdBfHB/6tmG13zS9SeVAaBhDnLcIxNHyTLNXqPURSA4QgpOv6ZY7TYZrH4f/Htu1z8/n8o/X6yzwQBPCd4Wx69OM+rBYFgLR2Dc5GJPe3AsKqYm+aw2oCa40GCJdIkKBr+cf6onLUWrRo0Wsqlcq3vPLw8oqI6OpcLufqpmTZVKbAxze+fa/XhvcqV/b/v+WnbQ3siRg3UBQAkuouXAUE7p7QAHiwxtuxoQBx3iJMTFCf3ubVWg6Xy+Wj/dZY9/MAOayPgw47opehfpVIJM5buXKldEniVKbAF4HubC82nFFcllY5uirpHwWAtGUK6wnAnbAjQPfumJEaDpBzzjln+owZMzihSsUlytxGxwkhSkq7G4CwruvHIo5SzLzBw3BbEfHzM2fOvL6np8dW6b/vonteo7WMcPhF/Rx0gnXFvvSEVX1V5qslO9kASXUVTgEEmfse5egCGfs0HCCslAqT4nYkT0A4J7NAPzKmaTJbu1QQ3QTzPJhIJD6u8tYYP4bszTeRfcJw37xQPH6TDZDWroFvOIWL6m4lES4d7msPPMB1UgDiHLX4dtaNKG28URqWYWgYBudluLpaa+xaVgghnQRUa+dbM4OdCORKvoyA/UPZ9oV+fgyi+AZp7R54BxJKpW/bWHnn5t7THgzaBpMGEAckfHRSrfFxohDC3aPh0VIXXXTRvtOmTeNQjzkehniOiD6Zy+UC+SbYVpuDHoKaYSHbNXy5guWj/tZ7ut8ktZ2W3Lb07mPJrvy3iy1eKmbTMjVRlEwq6agAJCoM9c11/0ZRmn2b8KQCpKOj4zBN0/gXQoXgawsRnZLL5aR+WVRsUmWYP7Sa5LXB4/3Go7Ztn57P57l8XGCtNVO4GQHcSz0gfKnYm74msImdgbg2IVSgWG9cBHpwKDuXOdECa2+84p43lUsjvMcy334fL2bT3w5s8h0GmlSAOG+RT1WZS1RZOp7TNK29v7/f7ZdN2ma6rr8fEX/g+lE88YicFbggjChkWbIFInpyWil51FM3z3laetGSgqlMgb1pNcPrEbQFQ9lT/YTb7KSJbDQBAITKVzzpAHFA8jVOR5XcrzGxF5w3iXt+gMvAuq6f58RTqV7+cb2TK4UQvtkz6qmY6hr4ASB+SMI+3VXmxVBqNqYyhf8FgAkiG3CwmG1PS+gmLfKmzE93L8MLvyGmJ3JpKvkkbmNN9PdIAISPeqZprq9TsqzW2hgk6Vwu91Mvi+c+pmleQ0T/4qH/07Ztn5XP5+/z0FepS1tmw3wC25WsGQBCDWDcxmiYeD8AnQQE6wjg7uG+tGpCnOvaWzMDnQgo45z4vfbi1qM3ijNech3Uo0BUAAJOIUx2VfJtu0p7kQtneimLoOt6HhG9hCb8VtO0M8cq1Koo61W2LVP4FQG4nvOR6Mqhvrn8Rm7Kts8VP9krUXqRnwOJODz6bDE71/2G3YclIgMQXoNzY82eLdkMxLGlv2zb9gfz+bwrXxJ3cCJxf+Sx1jmTJVwQxvdGvX1szQwsRUC38gj8Mv5bwq68d+OyedK39j6en8C7tmYGPoeAMslXm8swcvTT2TNc2Sj9KBkpgDhHnuOJyNORSYYNhWOqyuUyc+ByRK5q++xEBThVB/Eiv+/ld7Zp5dGyY+7RqiEE7XnRWbXPrKWFt9kEPyVyJa0AJLhhqC+t+t2qqtLkunlraWua5mlEdKfyarZl592hadoFK1eu3DK+v5PdyEV+VMHBufKfmOxU4FRXIQsIXVJ2QTyz2NvuHsslNVhjhFLdg/1AVLdOo6NJGWHaUUPZUx4OW7PIvUHGFmya5qlExMegFg9G2GTb9kfy+fzPxvp2dHS8SdNG2dNVaYg2apqW7u/vZy/OpLZ9uzccrRHdD0C7SygSGDeUxFy+RRRirjgq+ubhvrmcpRp6iyxAeOWdnZ0n2bZ9FwDIPBDjjVVBxJ6ZM2d+eePGjewu5Ghc1epMj9i2fUo+n697URb6Lu0wQVv34BeJiCt5ubZm+mBPZQr8YzjK7FK3EWxEsGf7rT3oNs3Y3yMNEAcks23bZhLi18guapzcvQBwBAC8XqU/EW2oVCpnr1q16u8q/cKWff3in+09LfnsTwFQwsvTHB/srV0D5yPiKGmFRAvtrmeiuSMPEFbaSXHlN4nSQy5h7FoiPxRCnOmjf6hd27rWX0ioyd5cf7OYTbtw2Yaqbt3BHRYX/gE80k0LBLhvKJt+n5tckH9vCoDwgh0XMH+4q96TKNkLEXOWZRlKnSZBWOF2nV0Xn60WtAz1vsCrCVLdhW8DwblS/SfB8dA0AHHeJHsQ0e2IGMqvOxF15XK5ZVKbNclC+2YGTtQA+fgo1Yjss4f75n1PSrhBQpK1Bke1IcTVw73tFzVIte3TNBVAxrQ2DIPzNNzqaKjacjvLumrHyZKXDQffph/+RSOct6nv1LpkEY1aS2pJ4VzQQDICl55HmH5CI9y649fflADhRei6Ph/RvZi85IbfW6lUzrrllluYWb1pmlPXkMuqHSijdJh5EzLzj8m0Lll/JGraQ7J9iOhzw31zvcTLyU5RU65pAcIrcvJJmG1PNelqIoNsJaI1zOoohGBmw6Zobd2DlxDR16WVJegr9qXd2FKkh1MWNH45LbXn09Jl9TjXJAnPz34yO58vaxvemhogbK2enp7kxo0b+bjFyULJgCz4awbKHnvscXsz1CmRZR0csw0RmGFE4crYvi0z8BgBuoaxb9cVMD2cbec7rElpTQ+QMas5RBD8NlFhS3Ez+gt8wcg3+hzCIoT4m1uHyfp7KlPgqAHpEBqVqk5Bramte/A+IpKuXY4aXjl0Y/ukRibvMgAZ20TDMFR5t1T2n4Mo7+SQlSCzGVUUqCXbtvTuw8ku/wwA95Idr5EgSWUKnNj2LlndAPFbxd72T0jLhyS4ywGE7dTZ2XmEbdtcFNKtUpNfs/4SAH6GiL9BxF/39/cHzqrBefJMWKdp2mG2bbcgInuhBoUQz41XPtVdOBdI1jO0rXcjQJLKFJhkY7a8sfHRYrb9cHn58CR3SYCMmcuJCr6+SjTdSGM/TkSPVxOxnqjW/fizbdtPaprG//9VpHflcllDRA6f4UpReyDi6H8BYG8AYFBwUGXN2+Vaof2prsK1gGou8DBBksoUmPTtFLVHWK2Kr9rYatK7NEDGTOHUSuS7k1Y180Re2hRC7JTyqnbLHt6bpLWrcBcizFOyItmfKPbN+5ZSnxCFpwRA2H5cjnnr1q1cX+IylTolIdo+iKE3CSHeyBfNOx23MoN/BCCVOomBHrdSXYV/B4QPKy0Soa/YO4ku6AmUnTIA2XHtDqUou4ZDr9Ck9IB4ENY07e21clVSmYEKAMpU2d0+MxFcPtyXlkjtnVjZ1svuPhIr9vUA1K64nP8sZtNhfzMqqjTJxHHK2gbcgbmwuOgmIp4W8NCNHO4YIQTn8e/cDGtaas8DOTpAKVUAAW+zbe3y4WVzlPJgnLB1/uZLKRkgZAJuJV3GCU/JN8h4g/GNfCKROJ+I2K14gB+DNrjvy8lksrVewdPUZYU9oQJ/Uv7+IvotoX35cPY0qUu6tu7C9USjx1elFiavsJIiNYRjgIwzDFesJSKO8/ooABwchJHDGoOI+nO5nCtp9f6fuWPG1q3JBwFQGfxuRy4fRyo+v4RClxqkvWOA1LHmxRdffIimae9DRE7S4X8HBWl8P2MR0X/ttttuc5cvXy5VXap1yd0p1Cr3eIk0qHXk8nykGq22ZX9huG+ea/11PzYKom8MEAUrLlq0qK1UKjFg+GPyBCeVV2GEQEQfIKK+XC7HRUSV2qxLf7h/OdnyPSQ4RqkjC/ORC/Dzw33p749mAWp4BZAkw8q4yZoFHKx2DBDlJ+UfHQzD2MO27cMQ8WBEfAsA8D8+lvElnzt/1c5zc/77886/p4loCBEfJqKHNE17zLKsR3yoO9p138zAIRogJ055y8wkWAcazAaCWV50aSZwxADxssMKfZjBcfr06buXSqXdE4nE7pqmMTsL35aPkmRXKpUXEfGZSqWypZG5KG1L7zrcthM3IChe4imsfQLREUK8arg3+CpQ/tSq3zt+g4Rp3YiP3ZYZ/AIBfa4Bat6v2XD1pmVp6RThBugkNUUMECkz7bpCqe4Cc1F9BWiUGimERsumwfNXTVbCk98FxQDxa8FdoP82D5f9FQAKkhThCSK4argvzTk6TdtigDTt1gWveFumsIgQvgzkUnraZWoE+l4Zk1f9rXdO4DUTg191/A3SaJs29XxtS9YfSxp+BWDUle2lXVXMpq/z0jGKfeI3SBR3JQI6tXYP3opEHP0s2zjn5Yqh3navdeVl52moXAyQhpq7uSZzKE5151K0hvL4AoL9TSD6aqMIpRtpxRggjbR2k841WmnXhg+ShjORaBYgvAQ2FAnsIajQbcPLT/tjky7NVe0YIK4migWmsgVigEzl3Y/X7mqBGCCuJooFprIFYoBM5d2P1+5qgRggriaKBaayBWKATOXdj9fuaoEYIK4migWmsgVigEzl3Y/X7mqBGCCuJooFprIFYoBM5d2P1+5qgRggriaKBaayBWKATOXdj9fuaoEYIK4migWmsgVigEzl3Y/X7mqBGCCuJooFprIFYoBM5d2P1+5qgRggriaKBaayBWKATOXdj9fuaoEYIK4migWmsgX+H+6iPdeeKK61AAAAAElFTkSuQmCC;" vertex="1" parent="OGXLcFdzuTNNJpqdDNey-23">
          <mxGeometry x="12.5" width="30" height="30" as="geometry" />
        </mxCell>
        <mxCell id="OGXLcFdzuTNNJpqdDNey-22" value="众安WAF" style="text;html=1;align=center;verticalAlign=middle;whiteSpace=wrap;rounded=0;" vertex="1" parent="OGXLcFdzuTNNJpqdDNey-23">
          <mxGeometry y="30" width="55" height="30" as="geometry" />
        </mxCell>
        <mxCell id="OGXLcFdzuTNNJpqdDNey-25" value="" style="endArrow=classic;html=1;rounded=0;exitX=0.5;exitY=1;exitDx=0;exitDy=0;entryX=0.5;entryY=1;entryDx=0;entryDy=0;edgeStyle=orthogonalEdgeStyle;curved=1;dashed=1;" edge="1" parent="1" source="OGXLcFdzuTNNJpqdDNey-16" target="OGXLcFdzuTNNJpqdDNey-22">
          <mxGeometry width="50" height="50" relative="1" as="geometry">
            <mxPoint x="-20" y="490" as="sourcePoint" />
            <mxPoint x="30" y="440" as="targetPoint" />
            <Array as="points">
              <mxPoint x="-20" y="440" />
              <mxPoint x="108" y="440" />
            </Array>
          </mxGeometry>
        </mxCell>
        <mxCell id="OGXLcFdzuTNNJpqdDNey-26" value="" style="endArrow=classic;html=1;rounded=0;entryX=0;entryY=0.25;entryDx=0;entryDy=0;dashed=1;" edge="1" parent="1" target="OGXLcFdzuTNNJpqdDNey-17">
          <mxGeometry width="50" height="50" relative="1" as="geometry">
            <mxPoint x="130" y="340" as="sourcePoint" />
            <mxPoint x="170" y="300" as="targetPoint" />
          </mxGeometry>
        </mxCell>
      </root>
    </mxGraphModel>
  </diagram>
</mxfile>
